<?xml version="1.0" encoding="utf-8"?>
<!-- Generator: Adobe Illustrator 27.5.0, SVG Export Plug-In . SVG Version: 6.00 Build 0)  -->
<svg version="1.1" xmlns="http://www.w3.org/2000/svg" xmlns:xlink="http://www.w3.org/1999/xlink" x="0px" y="0px"
	 viewBox="0 0 500 500" style="enable-background:new 0 0 500 500;" xml:space="preserve">
<g id="Background_Simple">
	<g>
		<path style="fill:#92E3A9;" d="M481.22,250.085c-5.357,45.368-26.072,98.116-67.443,122.348
			c-62.509,36.62-57.276,92.945-179.287,117.431c-19.023,3.82-37.076,5.427-54.098,5.109c-9.151-0.17-18.009-0.908-26.552-2.165
			C76.295,481.482,24.11,427.581,4.965,362.515c-25.195-85.572,25.113-141.595,58.458-175.348
			C96.768,153.413,121.19,48.242,240.946,23.228c18.26-3.806,36.932-5.748,55.6-5.282c42.608,1.045,89.083,15.037,121.241,44.239
			c2.414,2.194,4.762,4.47,7.052,6.813C469.535,114.875,488.527,188.234,481.22,250.085z"/>
		<path style="opacity:0.7;fill:#FFFFFF;" d="M481.22,250.085c-5.357,45.368-26.072,98.116-67.443,122.348
			c-62.509,36.62-57.276,92.945-179.287,117.431c-19.023,3.82-37.076,5.427-54.098,5.109c-9.151-0.17-18.009-0.908-26.552-2.165
			C76.295,481.482,24.11,427.581,4.965,362.515c-25.195-85.572,25.113-141.595,58.458-175.348
			C96.768,153.413,121.19,48.242,240.946,23.228c18.26-3.806,36.932-5.748,55.6-5.282c42.608,1.045,89.083,15.037,121.241,44.239
			c2.414,2.194,4.762,4.47,7.052,6.813C469.535,114.875,488.527,188.234,481.22,250.085z"/>
	</g>
</g>
<g id="Menu">
	<g>
		
			<rect x="12.977" y="50.762" style="fill:#263238;stroke:#263238;stroke-linecap:round;stroke-linejoin:round;stroke-miterlimit:10;" width="475.048" height="144.181"/>
		<g>
			<g>
				
					<rect x="20.714" y="60.012" style="fill:#FFFFFF;stroke:#B0B0B0;stroke-linecap:round;stroke-linejoin:round;stroke-miterlimit:10;" width="122.688" height="123.358"/>
				
					<rect x="254.692" y="60.012" style="fill:#FFFFFF;stroke:#B0B0B0;stroke-linecap:round;stroke-linejoin:round;stroke-miterlimit:10;" width="122.688" height="123.358"/>
				
					<rect x="148.765" y="60.012" style="fill:#FFFFFF;stroke:#B0B0B0;stroke-linecap:round;stroke-linejoin:round;stroke-miterlimit:10;" width="99.893" height="62.349"/>
				
					<rect x="148.765" y="130.407" style="fill:#FFFFFF;stroke:#B0B0B0;stroke-linecap:round;stroke-linejoin:round;stroke-miterlimit:10;" width="99.893" height="52.964"/>
				
					<rect x="382.743" y="60.012" style="fill:#FFFFFF;stroke:#B0B0B0;stroke-linecap:round;stroke-linejoin:round;stroke-miterlimit:10;" width="99.893" height="62.349"/>
				
					<rect x="382.743" y="130.407" style="fill:#FFFFFF;stroke:#B0B0B0;stroke-linecap:round;stroke-linejoin:round;stroke-miterlimit:10;" width="99.893" height="52.964"/>
			</g>
			<g>
				<path style="fill:#92E3A9;stroke:#B2B2B2;stroke-linecap:round;stroke-linejoin:round;stroke-miterlimit:10;" d="M91.889,67.526
					c0,0-45.298,71.558-43.328,72.214c1.969,0.656,89.283-11.16,89.283-11.16v0c2.266-28.327-16.473-54.071-44.126-60.621
					L91.889,67.526z"/>
				<path style="fill:#FFFFFF;stroke:#B2B2B2;stroke-linecap:round;stroke-linejoin:round;stroke-miterlimit:10;" d="M88.973,72.146
					c-9.98,15.842-42.077,67.038-40.412,67.593c1.688,0.563,66.028-8.032,84.415-10.504
					C133.52,102.392,115.341,78.532,88.973,72.146z"/>
				<path style="fill:#92E3A9;stroke:#B2B2B2;stroke-linecap:round;stroke-linejoin:round;stroke-miterlimit:10;" d="
					M77.679,124.663c0,2.777-2.251,5.028-5.028,5.028c-2.777,0-5.028-2.251-5.028-5.028c0-2.777,2.251-5.028,5.028-5.028
					C75.428,119.635,77.679,121.886,77.679,124.663z"/>
				
					<circle style="fill:#92E3A9;stroke:#B2B2B2;stroke-linecap:round;stroke-linejoin:round;stroke-miterlimit:10;" cx="88.878" cy="102.037" r="9.828"/>
				<path style="fill:#92E3A9;stroke:#B2B2B2;stroke-linecap:round;stroke-linejoin:round;stroke-miterlimit:10;" d="
					M125.218,119.407c0,2.398-1.944,4.342-4.342,4.342c-2.398,0-4.342-1.944-4.342-4.342c0-2.398,1.944-4.342,4.342-4.342
					C123.273,115.064,125.218,117.008,125.218,119.407z"/>
				<path style="fill:#92E3A9;stroke:#B2B2B2;stroke-linecap:round;stroke-linejoin:round;stroke-miterlimit:10;" d="
					M109.676,89.238c0,2.903-2.354,5.257-5.257,5.257c-2.903,0-5.257-2.354-5.257-5.257s2.354-5.257,5.257-5.257
					C107.323,83.981,109.676,86.335,109.676,89.238z"/>
				<path style="fill:#92E3A9;stroke:#B2B2B2;stroke-linecap:round;stroke-linejoin:round;stroke-miterlimit:10;" d="
					M107.747,120.427c0,3.661-2.967,6.628-6.628,6.628c-3.661,0-6.628-2.967-6.628-6.628c0-3.66,2.967-6.628,6.628-6.628
					C104.779,113.799,107.747,116.767,107.747,120.427z"/>
			</g>
			<g>
				<path style="fill:#92E3A9;stroke:#B2B2B2;stroke-linecap:round;stroke-linejoin:round;stroke-miterlimit:10;" d="
					M288.825,66.804c0,0-30.376,47.985-29.055,48.425c1.321,0.44,59.871-7.484,59.871-7.484v0
					c1.52-18.996-11.046-36.259-29.59-40.651L288.825,66.804z"/>
				<path style="fill:#FFFFFF;stroke:#B2B2B2;stroke-linecap:round;stroke-linejoin:round;stroke-miterlimit:10;" d="M286.87,69.903
					c-6.693,10.623-28.216,44.955-27.1,45.327c1.132,0.377,44.277-5.386,56.607-7.044C316.742,90.185,304.551,74.185,286.87,69.903z
					"/>
				<path style="fill:#92E3A9;stroke:#B2B2B2;stroke-linecap:round;stroke-linejoin:round;stroke-miterlimit:10;" d="
					M279.296,105.12c0,1.862-1.51,3.372-3.372,3.372c-1.862,0-3.372-1.51-3.372-3.372c0-1.862,1.51-3.372,3.372-3.372
					C277.787,101.748,279.296,103.258,279.296,105.12z"/>
				<path style="fill:#92E3A9;stroke:#B2B2B2;stroke-linecap:round;stroke-linejoin:round;stroke-miterlimit:10;" d="
					M293.396,89.947c0,3.64-2.951,6.59-6.59,6.59c-3.64,0-6.59-2.951-6.59-6.59c0-3.64,2.951-6.59,6.59-6.59
					C290.446,83.357,293.396,86.307,293.396,89.947z"/>
				<path style="fill:#92E3A9;stroke:#B2B2B2;stroke-linecap:round;stroke-linejoin:round;stroke-miterlimit:10;" d="
					M311.175,101.595c0,1.608-1.304,2.912-2.912,2.912c-1.608,0-2.912-1.304-2.912-2.912c0-1.608,1.304-2.912,2.912-2.912
					C309.871,98.683,311.175,99.987,311.175,101.595z"/>
				
					<circle style="fill:#92E3A9;stroke:#B2B2B2;stroke-linecap:round;stroke-linejoin:round;stroke-miterlimit:10;" cx="297.228" cy="81.364" r="3.525"/>
				
					<circle style="fill:#92E3A9;stroke:#B2B2B2;stroke-linecap:round;stroke-linejoin:round;stroke-miterlimit:10;" cx="295.014" cy="102.279" r="4.445"/>
			</g>
			<g>
				<path style="fill:#92E3A9;stroke:#B2B2B2;stroke-linecap:round;stroke-linejoin:round;stroke-miterlimit:10;" d="
					M317.454,100.341c0,0-54.644,15.47-53.954,16.68s49.586,34.377,49.586,34.377h0c13.807-13.134,15.968-34.377,5.087-50.022
					L317.454,100.341z"/>
				<path style="fill:#FFFFFF;stroke:#B2B2B2;stroke-linecap:round;stroke-linejoin:round;stroke-miterlimit:10;" d="
					M313.93,101.344c-12.073,3.446-51.013,14.655-50.43,15.676c0.591,1.036,36.572,25.533,46.862,32.527
					C322.645,136.383,324.242,116.332,313.93,101.344z"/>
				<path style="fill:#92E3A9;stroke:#B2B2B2;stroke-linecap:round;stroke-linejoin:round;stroke-miterlimit:10;" d="M284.79,122.52
					c-1.243,1.387-3.374,1.504-4.761,0.261c-1.387-1.243-1.504-3.374-0.261-4.761c1.243-1.387,3.374-1.504,4.761-0.261
					C285.915,119.001,286.032,121.133,284.79,122.52z"/>
				<path style="fill:#92E3A9;stroke:#B2B2B2;stroke-linecap:round;stroke-linejoin:round;stroke-miterlimit:10;" d="
					M305.416,120.628c-2.429,2.711-6.595,2.94-9.306,0.511c-2.711-2.429-2.94-6.595-0.511-9.306c2.429-2.711,6.595-2.94,9.306-0.511
					C307.616,113.751,307.845,117.917,305.416,120.628z"/>
				<path style="fill:#92E3A9;stroke:#B2B2B2;stroke-linecap:round;stroke-linejoin:round;stroke-miterlimit:10;" d="
					M310.885,141.167c-1.073,1.198-2.914,1.299-4.112,0.226c-1.198-1.073-1.299-2.914-0.226-4.112
					c1.073-1.198,2.914-1.299,4.112-0.226C311.857,138.128,311.958,139.969,310.885,141.167z"/>
				<path style="fill:#92E3A9;stroke:#B2B2B2;stroke-linecap:round;stroke-linejoin:round;stroke-miterlimit:10;" d="
					M316.622,119.144c-1.299,1.45-3.528,1.572-4.978,0.273c-1.45-1.299-1.572-3.528-0.273-4.978c1.299-1.45,3.528-1.572,4.978-0.273
					C317.799,115.466,317.921,117.694,316.622,119.144z"/>
				<path style="fill:#92E3A9;stroke:#B2B2B2;stroke-linecap:round;stroke-linejoin:round;stroke-miterlimit:10;" d="
					M301.702,133.859c-1.638,1.828-4.448,1.983-6.276,0.345c-1.828-1.638-1.983-4.448-0.345-6.276
					c1.638-1.828,4.448-1.983,6.276-0.345C303.186,129.221,303.34,132.031,301.702,133.859z"/>
			</g>
			<g>
				<path style="fill:#B2B2B2;stroke:#B2B2B2;stroke-linecap:round;stroke-linejoin:round;stroke-miterlimit:10;" d="
					M329.851,76.373l4.465,57.565c0,0.899,6.174,1.628,13.789,1.628c7.616,0,13.789-0.729,13.789-1.628l4.481-57.565H329.851z"/>
				<path style="fill:#FFFFFF;stroke:#B2B2B2;stroke-linecap:round;stroke-linejoin:round;stroke-miterlimit:10;" d="
					M334.315,133.938c0,0.79,4.772,1.448,11.1,1.596c1.84-2.486,3.83-5.687,5.966-9.827c4.258-8.249,8.643-14.352,12.62-18.845
					l2.373-30.49h-4.868c-5.037,5.472-10.8,12.47-15.406,20.086c-3.891,6.435-8.828,11.432-13.514,15.183L334.315,133.938z"/>
				<path style="fill:#FFFFFF;stroke:#B2B2B2;stroke-linecap:round;stroke-linejoin:round;stroke-miterlimit:10;" d="
					M328.439,72.017v5.741c0,1.124,8.805,2.035,19.666,2.035s19.666-0.911,19.666-2.035v-5.741H328.439z"/>
				
					<ellipse style="fill:#FFFFFF;stroke:#B2B2B2;stroke-linecap:round;stroke-linejoin:round;stroke-miterlimit:10;" cx="348.105" cy="72.017" rx="19.666" ry="2.034"/>
			</g>
			<g>
				
					<line style="fill:none;stroke:#B0B0B0;stroke-linecap:round;stroke-linejoin:round;stroke-miterlimit:10;" x1="28.354" y1="153.202" x2="71.379" y2="153.202"/>
				
					<line style="fill:none;stroke:#B0B0B0;stroke-linecap:round;stroke-linejoin:round;stroke-miterlimit:10;" x1="28.354" y1="163.668" x2="71.379" y2="163.668"/>
			</g>
			<g>
				
					<line style="fill:none;stroke:#B0B0B0;stroke-linecap:round;stroke-linejoin:round;stroke-miterlimit:10;" x1="28.354" y1="74.71" x2="71.379" y2="74.71"/>
				
					<line style="fill:none;stroke:#B0B0B0;stroke-linecap:round;stroke-linejoin:round;stroke-miterlimit:10;" x1="28.354" y1="85.175" x2="71.379" y2="85.175"/>
			</g>
			<g>
				<g>
					
						<line style="fill:none;stroke:#B0B0B0;stroke-linecap:round;stroke-linejoin:round;stroke-miterlimit:10;" x1="156.848" y1="74.71" x2="185.919" y2="74.71"/>
					
						<line style="fill:none;stroke:#B0B0B0;stroke-linecap:round;stroke-linejoin:round;stroke-miterlimit:10;" x1="156.848" y1="85.175" x2="185.919" y2="85.175"/>
				</g>
				<g>
					
						<line style="fill:none;stroke:#B0B0B0;stroke-linecap:round;stroke-linejoin:round;stroke-miterlimit:10;" x1="156.848" y1="95.06" x2="185.919" y2="95.06"/>
					
						<line style="fill:none;stroke:#B0B0B0;stroke-linecap:round;stroke-linejoin:round;stroke-miterlimit:10;" x1="156.848" y1="105.525" x2="185.919" y2="105.525"/>
				</g>
			</g>
			<g>
				<g>
					
						<line style="fill:none;stroke:#B0B0B0;stroke-linecap:round;stroke-linejoin:round;stroke-miterlimit:10;" x1="206.269" y1="74.71" x2="235.34" y2="74.71"/>
					
						<line style="fill:none;stroke:#B0B0B0;stroke-linecap:round;stroke-linejoin:round;stroke-miterlimit:10;" x1="206.269" y1="85.175" x2="235.34" y2="85.175"/>
				</g>
				<g>
					
						<line style="fill:none;stroke:#B0B0B0;stroke-linecap:round;stroke-linejoin:round;stroke-miterlimit:10;" x1="206.269" y1="95.06" x2="235.34" y2="95.06"/>
					
						<line style="fill:none;stroke:#B0B0B0;stroke-linecap:round;stroke-linejoin:round;stroke-miterlimit:10;" x1="206.269" y1="105.525" x2="235.34" y2="105.525"/>
				</g>
			</g>
			<g>
				<g>
					
						<line style="fill:none;stroke:#B0B0B0;stroke-linecap:round;stroke-linejoin:round;stroke-miterlimit:10;" x1="393.488" y1="74.71" x2="422.559" y2="74.71"/>
					
						<line style="fill:none;stroke:#B0B0B0;stroke-linecap:round;stroke-linejoin:round;stroke-miterlimit:10;" x1="393.488" y1="85.175" x2="422.559" y2="85.175"/>
				</g>
				<g>
					
						<line style="fill:none;stroke:#B0B0B0;stroke-linecap:round;stroke-linejoin:round;stroke-miterlimit:10;" x1="393.488" y1="95.06" x2="422.559" y2="95.06"/>
					
						<line style="fill:none;stroke:#B0B0B0;stroke-linecap:round;stroke-linejoin:round;stroke-miterlimit:10;" x1="393.488" y1="105.525" x2="422.559" y2="105.525"/>
				</g>
			</g>
			<g>
				<g>
					
						<line style="fill:none;stroke:#B0B0B0;stroke-linecap:round;stroke-linejoin:round;stroke-miterlimit:10;" x1="443.49" y1="74.71" x2="472.561" y2="74.71"/>
					
						<line style="fill:none;stroke:#B0B0B0;stroke-linecap:round;stroke-linejoin:round;stroke-miterlimit:10;" x1="443.49" y1="85.175" x2="472.561" y2="85.175"/>
				</g>
				<g>
					
						<line style="fill:none;stroke:#B0B0B0;stroke-linecap:round;stroke-linejoin:round;stroke-miterlimit:10;" x1="443.49" y1="95.06" x2="472.561" y2="95.06"/>
					
						<line style="fill:none;stroke:#B0B0B0;stroke-linecap:round;stroke-linejoin:round;stroke-miterlimit:10;" x1="443.49" y1="105.525" x2="472.561" y2="105.525"/>
				</g>
			</g>
			<g>
				<g>
					
						<line style="fill:none;stroke:#B0B0B0;stroke-linecap:round;stroke-linejoin:round;stroke-miterlimit:10;" x1="393.488" y1="141.574" x2="422.559" y2="141.574"/>
					
						<line style="fill:none;stroke:#B0B0B0;stroke-linecap:round;stroke-linejoin:round;stroke-miterlimit:10;" x1="393.488" y1="152.039" x2="422.559" y2="152.039"/>
				</g>
				<g>
					
						<line style="fill:none;stroke:#B0B0B0;stroke-linecap:round;stroke-linejoin:round;stroke-miterlimit:10;" x1="393.488" y1="161.923" x2="422.559" y2="161.923"/>
					
						<line style="fill:none;stroke:#B0B0B0;stroke-linecap:round;stroke-linejoin:round;stroke-miterlimit:10;" x1="393.488" y1="172.389" x2="422.559" y2="172.389"/>
				</g>
			</g>
			<g>
				<g>
					
						<line style="fill:none;stroke:#B0B0B0;stroke-linecap:round;stroke-linejoin:round;stroke-miterlimit:10;" x1="443.49" y1="141.574" x2="472.561" y2="141.574"/>
					
						<line style="fill:none;stroke:#B0B0B0;stroke-linecap:round;stroke-linejoin:round;stroke-miterlimit:10;" x1="443.49" y1="152.039" x2="472.561" y2="152.039"/>
				</g>
				<g>
					
						<line style="fill:none;stroke:#B0B0B0;stroke-linecap:round;stroke-linejoin:round;stroke-miterlimit:10;" x1="443.49" y1="161.923" x2="472.561" y2="161.923"/>
					
						<line style="fill:none;stroke:#B0B0B0;stroke-linecap:round;stroke-linejoin:round;stroke-miterlimit:10;" x1="443.49" y1="172.389" x2="472.561" y2="172.389"/>
				</g>
			</g>
			<g>
				<g>
					
						<line style="fill:none;stroke:#B0B0B0;stroke-linecap:round;stroke-linejoin:round;stroke-miterlimit:10;" x1="156.848" y1="140.411" x2="185.919" y2="140.411"/>
					
						<line style="fill:none;stroke:#B0B0B0;stroke-linecap:round;stroke-linejoin:round;stroke-miterlimit:10;" x1="156.848" y1="150.876" x2="185.919" y2="150.876"/>
				</g>
				<g>
					
						<line style="fill:none;stroke:#B0B0B0;stroke-linecap:round;stroke-linejoin:round;stroke-miterlimit:10;" x1="156.848" y1="160.761" x2="185.919" y2="160.761"/>
					
						<line style="fill:none;stroke:#B0B0B0;stroke-linecap:round;stroke-linejoin:round;stroke-miterlimit:10;" x1="156.848" y1="171.226" x2="185.919" y2="171.226"/>
				</g>
			</g>
			<g>
				<g>
					
						<line style="fill:none;stroke:#B0B0B0;stroke-linecap:round;stroke-linejoin:round;stroke-miterlimit:10;" x1="206.269" y1="140.411" x2="235.34" y2="140.411"/>
					
						<line style="fill:none;stroke:#B0B0B0;stroke-linecap:round;stroke-linejoin:round;stroke-miterlimit:10;" x1="206.269" y1="150.876" x2="235.34" y2="150.876"/>
				</g>
				<g>
					
						<line style="fill:none;stroke:#B0B0B0;stroke-linecap:round;stroke-linejoin:round;stroke-miterlimit:10;" x1="206.269" y1="160.761" x2="235.34" y2="160.761"/>
					
						<line style="fill:none;stroke:#B0B0B0;stroke-linecap:round;stroke-linejoin:round;stroke-miterlimit:10;" x1="206.269" y1="171.226" x2="235.34" y2="171.226"/>
				</g>
			</g>
			<g>
				
					<line style="fill:none;stroke:#B0B0B0;stroke-linecap:round;stroke-linejoin:round;stroke-miterlimit:10;" x1="91.729" y1="153.202" x2="134.754" y2="153.202"/>
				
					<line style="fill:none;stroke:#B0B0B0;stroke-linecap:round;stroke-linejoin:round;stroke-miterlimit:10;" x1="91.729" y1="163.668" x2="134.754" y2="163.668"/>
			</g>
			<g>
				
					<line style="fill:none;stroke:#B0B0B0;stroke-linecap:round;stroke-linejoin:round;stroke-miterlimit:10;" x1="261.504" y1="153.202" x2="304.53" y2="153.202"/>
				
					<line style="fill:none;stroke:#B0B0B0;stroke-linecap:round;stroke-linejoin:round;stroke-miterlimit:10;" x1="261.504" y1="163.668" x2="304.53" y2="163.668"/>
			</g>
			<g>
				
					<line style="fill:none;stroke:#B0B0B0;stroke-linecap:round;stroke-linejoin:round;stroke-miterlimit:10;" x1="324.88" y1="153.202" x2="367.905" y2="153.202"/>
				
					<line style="fill:none;stroke:#B0B0B0;stroke-linecap:round;stroke-linejoin:round;stroke-miterlimit:10;" x1="324.88" y1="163.668" x2="367.905" y2="163.668"/>
			</g>
			
				<ellipse transform="matrix(0.2312 -0.9729 0.9729 0.2312 148.835 453.4841)" style="fill:#FFFFFF;stroke:#B2B2B2;stroke-linecap:round;stroke-linejoin:round;stroke-miterlimit:10;" cx="361.346" cy="132.571" rx="14.261" ry="14.261"/>
			
				<circle style="fill:#FFFFFF;stroke:#B2B2B2;stroke-linecap:round;stroke-linejoin:round;stroke-miterlimit:10;" cx="275.876" cy="79.662" r="14.261"/>
			
				<ellipse transform="matrix(0.302 -0.9533 0.9533 0.302 -64.2418 130.8902)" style="fill:#FFFFFF;stroke:#B2B2B2;stroke-linecap:round;stroke-linejoin:round;stroke-miterlimit:10;" cx="57.261" cy="109.314" rx="14.261" ry="14.261"/>
		</g>
	</g>
	<g>
		<g>
			<g>
				<g>
					
						<rect x="461.716" y="232.151" style="fill:#FFFFFF;stroke:#B0B0B0;stroke-linecap:round;stroke-linejoin:round;stroke-miterlimit:10;" width="23.181" height="23.181"/>
					
						<rect x="439.528" y="232.151" style="fill:#B0B0B0;stroke:#B0B0B0;stroke-linecap:round;stroke-linejoin:round;stroke-miterlimit:10;" width="23.181" height="23.181"/>
				</g>
				<g>
					
						<rect x="461.716" y="254.339" style="fill:#B0B0B0;stroke:#B0B0B0;stroke-linecap:round;stroke-linejoin:round;stroke-miterlimit:10;" width="23.181" height="23.181"/>
					
						<rect x="439.528" y="254.339" style="fill:#FFFFFF;stroke:#B0B0B0;stroke-linecap:round;stroke-linejoin:round;stroke-miterlimit:10;" width="23.181" height="23.181"/>
				</g>
			</g>
			<g>
				<g>
					
						<rect x="416.678" y="232.151" style="fill:#FFFFFF;stroke:#B0B0B0;stroke-linecap:round;stroke-linejoin:round;stroke-miterlimit:10;" width="23.181" height="23.181"/>
					
						<rect x="394.491" y="232.151" style="fill:#B0B0B0;stroke:#B0B0B0;stroke-linecap:round;stroke-linejoin:round;stroke-miterlimit:10;" width="23.181" height="23.181"/>
				</g>
				<g>
					
						<rect x="416.678" y="254.339" style="fill:#B0B0B0;stroke:#B0B0B0;stroke-linecap:round;stroke-linejoin:round;stroke-miterlimit:10;" width="23.181" height="23.181"/>
					
						<rect x="394.491" y="254.339" style="fill:#FFFFFF;stroke:#B0B0B0;stroke-linecap:round;stroke-linejoin:round;stroke-miterlimit:10;" width="23.181" height="23.181"/>
				</g>
			</g>
			<g>
				<g>
					
						<rect x="371.641" y="232.151" style="fill:#FFFFFF;stroke:#B0B0B0;stroke-linecap:round;stroke-linejoin:round;stroke-miterlimit:10;" width="23.181" height="23.181"/>
					
						<rect x="349.454" y="232.151" style="fill:#B0B0B0;stroke:#B0B0B0;stroke-linecap:round;stroke-linejoin:round;stroke-miterlimit:10;" width="23.181" height="23.181"/>
				</g>
				<g>
					
						<rect x="371.641" y="254.339" style="fill:#B0B0B0;stroke:#B0B0B0;stroke-linecap:round;stroke-linejoin:round;stroke-miterlimit:10;" width="23.181" height="23.181"/>
					
						<rect x="349.454" y="254.339" style="fill:#FFFFFF;stroke:#B0B0B0;stroke-linecap:round;stroke-linejoin:round;stroke-miterlimit:10;" width="23.181" height="23.181"/>
				</g>
			</g>
			<g>
				<g>
					
						<rect x="326.604" y="232.151" style="fill:#FFFFFF;stroke:#B0B0B0;stroke-linecap:round;stroke-linejoin:round;stroke-miterlimit:10;" width="23.181" height="23.181"/>
					
						<rect x="304.416" y="232.151" style="fill:#B0B0B0;stroke:#B0B0B0;stroke-linecap:round;stroke-linejoin:round;stroke-miterlimit:10;" width="23.181" height="23.181"/>
				</g>
				<g>
					
						<rect x="326.604" y="254.339" style="fill:#B0B0B0;stroke:#B0B0B0;stroke-linecap:round;stroke-linejoin:round;stroke-miterlimit:10;" width="23.181" height="23.181"/>
					
						<rect x="304.416" y="254.339" style="fill:#FFFFFF;stroke:#B0B0B0;stroke-linecap:round;stroke-linejoin:round;stroke-miterlimit:10;" width="23.181" height="23.181"/>
				</g>
			</g>
			<g>
				<g>
					
						<rect x="281.567" y="232.151" style="fill:#FFFFFF;stroke:#B0B0B0;stroke-linecap:round;stroke-linejoin:round;stroke-miterlimit:10;" width="23.181" height="23.181"/>
					
						<rect x="259.379" y="232.151" style="fill:#B0B0B0;stroke:#B0B0B0;stroke-linecap:round;stroke-linejoin:round;stroke-miterlimit:10;" width="23.181" height="23.181"/>
				</g>
				<g>
					
						<rect x="281.567" y="254.339" style="fill:#B0B0B0;stroke:#B0B0B0;stroke-linecap:round;stroke-linejoin:round;stroke-miterlimit:10;" width="23.181" height="23.181"/>
					
						<rect x="259.379" y="254.339" style="fill:#FFFFFF;stroke:#B0B0B0;stroke-linecap:round;stroke-linejoin:round;stroke-miterlimit:10;" width="23.181" height="23.181"/>
				</g>
			</g>
			<g>
				<g>
					
						<rect x="236.529" y="232.151" style="fill:#FFFFFF;stroke:#B0B0B0;stroke-linecap:round;stroke-linejoin:round;stroke-miterlimit:10;" width="23.181" height="23.181"/>
					
						<rect x="214.342" y="232.151" style="fill:#B0B0B0;stroke:#B0B0B0;stroke-linecap:round;stroke-linejoin:round;stroke-miterlimit:10;" width="23.181" height="23.181"/>
				</g>
				<g>
					
						<rect x="236.529" y="254.339" style="fill:#B0B0B0;stroke:#B0B0B0;stroke-linecap:round;stroke-linejoin:round;stroke-miterlimit:10;" width="23.181" height="23.181"/>
					
						<rect x="214.342" y="254.339" style="fill:#FFFFFF;stroke:#B0B0B0;stroke-linecap:round;stroke-linejoin:round;stroke-miterlimit:10;" width="23.181" height="23.181"/>
				</g>
			</g>
			<g>
				<g>
					
						<rect x="191.492" y="232.151" style="fill:#FFFFFF;stroke:#B0B0B0;stroke-linecap:round;stroke-linejoin:round;stroke-miterlimit:10;" width="23.181" height="23.181"/>
					
						<rect x="169.305" y="232.151" style="fill:#B0B0B0;stroke:#B0B0B0;stroke-linecap:round;stroke-linejoin:round;stroke-miterlimit:10;" width="23.181" height="23.181"/>
				</g>
				<g>
					
						<rect x="191.492" y="254.339" style="fill:#B0B0B0;stroke:#B0B0B0;stroke-linecap:round;stroke-linejoin:round;stroke-miterlimit:10;" width="23.181" height="23.181"/>
					
						<rect x="169.305" y="254.339" style="fill:#FFFFFF;stroke:#B0B0B0;stroke-linecap:round;stroke-linejoin:round;stroke-miterlimit:10;" width="23.181" height="23.181"/>
				</g>
			</g>
		</g>
		<g>
			<g>
				<g>
					
						<rect x="145.659" y="232.151" style="fill:#FFFFFF;stroke:#B0B0B0;stroke-linecap:round;stroke-linejoin:round;stroke-miterlimit:10;" width="23.181" height="23.181"/>
					
						<rect x="123.471" y="232.151" style="fill:#B0B0B0;stroke:#B0B0B0;stroke-linecap:round;stroke-linejoin:round;stroke-miterlimit:10;" width="23.181" height="23.181"/>
				</g>
				<g>
					
						<rect x="145.659" y="254.339" style="fill:#B0B0B0;stroke:#B0B0B0;stroke-linecap:round;stroke-linejoin:round;stroke-miterlimit:10;" width="23.181" height="23.181"/>
					
						<rect x="123.471" y="254.339" style="fill:#FFFFFF;stroke:#B0B0B0;stroke-linecap:round;stroke-linejoin:round;stroke-miterlimit:10;" width="23.181" height="23.181"/>
				</g>
			</g>
			<g>
				<g>
					
						<rect x="100.621" y="232.151" style="fill:#FFFFFF;stroke:#B0B0B0;stroke-linecap:round;stroke-linejoin:round;stroke-miterlimit:10;" width="23.181" height="23.181"/>
					
						<rect x="78.434" y="232.151" style="fill:#B0B0B0;stroke:#B0B0B0;stroke-linecap:round;stroke-linejoin:round;stroke-miterlimit:10;" width="23.181" height="23.181"/>
				</g>
				<g>
					
						<rect x="100.621" y="254.339" style="fill:#B0B0B0;stroke:#B0B0B0;stroke-linecap:round;stroke-linejoin:round;stroke-miterlimit:10;" width="23.181" height="23.181"/>
					
						<rect x="78.434" y="254.339" style="fill:#FFFFFF;stroke:#B0B0B0;stroke-linecap:round;stroke-linejoin:round;stroke-miterlimit:10;" width="23.181" height="23.181"/>
				</g>
			</g>
			<g>
				<g>
					
						<rect x="55.584" y="232.151" style="fill:#FFFFFF;stroke:#B0B0B0;stroke-linecap:round;stroke-linejoin:round;stroke-miterlimit:10;" width="23.181" height="23.181"/>
					
						<rect x="33.397" y="232.151" style="fill:#B0B0B0;stroke:#B0B0B0;stroke-linecap:round;stroke-linejoin:round;stroke-miterlimit:10;" width="23.181" height="23.181"/>
				</g>
				<g>
					
						<rect x="55.584" y="254.339" style="fill:#B0B0B0;stroke:#B0B0B0;stroke-linecap:round;stroke-linejoin:round;stroke-miterlimit:10;" width="23.181" height="23.181"/>
					
						<rect x="33.397" y="254.339" style="fill:#FFFFFF;stroke:#B0B0B0;stroke-linecap:round;stroke-linejoin:round;stroke-miterlimit:10;" width="23.181" height="23.181"/>
				</g>
			</g>
			<g>
				<g>
					
						<rect x="10.547" y="232.151" style="fill:#FFFFFF;stroke:#B0B0B0;stroke-linecap:round;stroke-linejoin:round;stroke-miterlimit:10;" width="23.181" height="23.181"/>
				</g>
				<g>
					
						<rect x="10.547" y="254.339" style="fill:#B0B0B0;stroke:#B0B0B0;stroke-linecap:round;stroke-linejoin:round;stroke-miterlimit:10;" width="23.181" height="23.181"/>
				</g>
			</g>
		</g>
	</g>
</g>
<g id="Sign">
	<g>
		<path style="fill:#263238;stroke:#263238;stroke-linecap:round;stroke-linejoin:round;stroke-miterlimit:10;" d="M131.37,274.997
			H70.257c-4.888,0-8.851-3.963-8.851-8.851v-53.874c0-4.888,3.963-8.851,8.851-8.851h61.113c4.888,0,8.851,3.963,8.851,8.851
			v53.874C140.22,271.034,136.258,274.997,131.37,274.997z"/>
		
			<rect x="95.414" y="262.938" style="fill:#263238;stroke:#263238;stroke-linecap:round;stroke-linejoin:round;stroke-miterlimit:10;" width="7.555" height="160.928"/>
	</g>
</g>
<g id="Text">
	<g>
		<path style="fill:#92E3A9;" d="M78.704,233.876c-1.182,0-2.122-0.22-2.823-0.659c-0.701-0.439-1.202-1.072-1.504-1.896
			c-0.302-0.824-0.453-1.799-0.453-2.926v-6.244c0-1.126,0.151-2.091,0.453-2.895c0.302-0.803,0.804-1.418,1.504-1.844
			c0.701-0.425,1.641-0.639,2.823-0.639c1.209,0,2.16,0.213,2.854,0.639c0.693,0.426,1.195,1.041,1.504,1.844
			c0.309,0.804,0.464,1.769,0.464,2.895v6.264c0,1.113-0.155,2.078-0.464,2.895c-0.309,0.817-0.811,1.45-1.504,1.896
			C80.865,233.653,79.913,233.876,78.704,233.876z M78.704,231.63c0.508,0,0.883-0.109,1.123-0.329
			c0.24-0.219,0.402-0.522,0.484-0.907c0.083-0.384,0.124-0.803,0.124-1.257v-7.686c0-0.467-0.041-0.886-0.124-1.257
			c-0.082-0.371-0.244-0.663-0.484-0.876c-0.24-0.213-0.615-0.319-1.123-0.319c-0.481,0-0.845,0.106-1.092,0.319
			c-0.248,0.213-0.412,0.505-0.495,0.876c-0.082,0.371-0.123,0.79-0.123,1.257v7.686c0,0.454,0.038,0.872,0.113,1.257
			c0.075,0.385,0.237,0.688,0.484,0.907C77.839,231.521,78.21,231.63,78.704,231.63z"/>
		<path style="fill:#92E3A9;" d="M85.772,233.65v-16.69h3.998c1.126,0,2.078,0.134,2.854,0.402c0.776,0.268,1.367,0.725,1.772,1.37
			c0.405,0.646,0.608,1.525,0.608,2.638c0,0.673-0.062,1.277-0.185,1.813c-0.124,0.536-0.333,0.993-0.629,1.371
			c-0.295,0.378-0.704,0.669-1.226,0.876l2.329,8.222h-3.05l-2.02-7.645h-1.401v7.645H85.772z M88.822,224.089h0.948
			c0.59,0,1.061-0.085,1.412-0.257c0.35-0.172,0.601-0.446,0.752-0.824c0.151-0.378,0.227-0.862,0.227-1.453
			c0-0.838-0.154-1.466-0.463-1.886c-0.309-0.419-0.896-0.628-1.762-0.628h-1.113V224.089z"/>
		<path style="fill:#92E3A9;" d="M97.29,233.65v-16.69h3.936c1.36,0,2.421,0.186,3.184,0.556c0.763,0.371,1.305,0.941,1.628,1.71
			c0.323,0.77,0.484,1.745,0.484,2.926v6.1c0,1.209-0.162,2.215-0.484,3.019c-0.323,0.804-0.858,1.401-1.607,1.792
			c-0.749,0.392-1.775,0.587-3.08,0.587H97.29z M100.34,231.527h0.927c0.701,0,1.202-0.124,1.504-0.371
			c0.302-0.247,0.488-0.608,0.557-1.082c0.068-0.474,0.103-1.054,0.103-1.741v-6.388c0-0.673-0.048-1.215-0.145-1.627
			c-0.096-0.412-0.295-0.714-0.597-0.907c-0.303-0.192-0.79-0.289-1.463-0.289h-0.886V231.527z"/>
		<path style="fill:#92E3A9;" d="M108.767,233.65v-16.69h7.006v2.143h-3.956v4.801h3.111v2.123h-3.111v5.522h3.997v2.102H108.767z"
			/>
		<path style="fill:#92E3A9;" d="M117.586,233.65v-16.69h3.998c1.126,0,2.078,0.134,2.854,0.402c0.776,0.268,1.367,0.725,1.772,1.37
			c0.405,0.646,0.608,1.525,0.608,2.638c0,0.673-0.062,1.277-0.186,1.813c-0.124,0.536-0.333,0.993-0.628,1.371
			s-0.704,0.669-1.226,0.876l2.329,8.222h-3.05l-2.019-7.645h-1.401v7.645H117.586z M120.636,224.089h0.948
			c0.59,0,1.061-0.085,1.412-0.257c0.35-0.172,0.601-0.446,0.752-0.824c0.151-0.378,0.227-0.862,0.227-1.453
			c0-0.838-0.154-1.466-0.463-1.886c-0.309-0.419-0.896-0.628-1.762-0.628h-1.113V224.089z"/>
		<path style="fill:#92E3A9;" d="M81.064,258.376v-16.69h3.029v6.985h3.4v-6.985h3.05v16.69h-3.05v-7.542h-3.4v7.542H81.064z"/>
		<path style="fill:#92E3A9;" d="M93.097,258.376v-16.69h7.006v2.143h-3.956v4.801h3.111v2.122h-3.111v5.522h3.998v2.102H93.097z"/>
		<path style="fill:#92E3A9;" d="M101.916,258.376v-16.69h3.998c1.126,0,2.078,0.134,2.854,0.402
			c0.776,0.268,1.367,0.725,1.772,1.37c0.405,0.646,0.608,1.525,0.608,2.638c0,0.673-0.062,1.277-0.186,1.813
			c-0.123,0.536-0.333,0.993-0.628,1.371c-0.295,0.378-0.704,0.669-1.226,0.876l2.329,8.222h-3.05l-2.02-7.645h-1.401v7.645H101.916
			z M104.966,248.815h0.948c0.59,0,1.061-0.085,1.412-0.257c0.35-0.172,0.601-0.446,0.752-0.824
			c0.151-0.378,0.227-0.862,0.227-1.453c0-0.838-0.154-1.466-0.463-1.886c-0.309-0.419-0.896-0.628-1.762-0.628h-1.113V248.815z"/>
		<path style="fill:#92E3A9;" d="M113.434,258.376v-16.69h7.006v2.143h-3.956v4.801h3.111v2.122h-3.111v5.522h3.997v2.102H113.434z"
			/>
	</g>
</g>
<g id="Table">
	<g>
		
			<line style="fill:none;stroke:#263238;stroke-linecap:round;stroke-linejoin:round;stroke-miterlimit:10;" x1="10.355" y1="421.939" x2="484.781" y2="421.939"/>
		
			<line style="fill:none;stroke:#263238;stroke-linecap:round;stroke-linejoin:round;stroke-miterlimit:10;" x1="10.355" y1="453.579" x2="484.781" y2="453.579"/>
		
			<line style="fill:none;stroke:#263238;stroke-linecap:round;stroke-linejoin:round;stroke-miterlimit:10;" x1="10.355" y1="477.967" x2="484.781" y2="477.967"/>
	</g>
</g>
<g id="Character">
	<g>
		<path style="fill:#92E3A9;stroke:#263238;stroke-linecap:round;stroke-linejoin:round;stroke-miterlimit:10;" d="M211.028,251.283
			c0,0-36.788,11.91-39.005,14.934c-2.218,3.024-15.873,60.65-15.873,60.65l31.494,8.078l2.621,1.411l-1.373,87.895h97.572
			l-3.868-97.774l0.266,11.082l33.814-6.353l-13.018-59.545l-40.617-21.387L211.028,251.283z"/>
		
			<line style="fill:none;stroke:#263238;stroke-linecap:round;stroke-linejoin:round;stroke-miterlimit:10;" x1="182.747" y1="282.402" x2="180.991" y2="276.684"/>
		<polyline style="fill:none;stroke:#263238;stroke-linecap:round;stroke-linejoin:round;stroke-miterlimit:10;" points="
			190.264,336.356 190.465,307.528 184.047,286.634 		"/>
		<path style="fill:none;stroke:#263238;stroke-linecap:round;stroke-linejoin:round;stroke-miterlimit:10;" d="M189.861,310.149
			c0,0-9.475-12.297-13.305-25.804"/>
		<polyline style="fill:none;stroke:#263238;stroke-linecap:round;stroke-linejoin:round;stroke-miterlimit:10;" points="
			282.594,326.478 286.022,306.318 295.093,276.482 		"/>
		<path style="fill:none;stroke:#263238;stroke-linecap:round;stroke-linejoin:round;stroke-miterlimit:10;" d="M291.816,300.57
			c-0.943,2.489-1.999,4.978-3.173,7.361"/>
		<path style="fill:none;stroke:#263238;stroke-linecap:round;stroke-linejoin:round;stroke-miterlimit:10;" d="M298.319,276.482
			c0,0-1.618,10.053-5.378,20.973"/>
		<path style="fill:none;stroke:#263238;stroke-linecap:round;stroke-linejoin:round;stroke-miterlimit:10;" d="M236.832,266.201
			c0,0-0.806,36.287-0.202,36.489s7.056-0.605,7.056-0.605"/>
		<path style="fill:#FFFFFF;stroke:#263238;stroke-linecap:round;stroke-linejoin:round;stroke-miterlimit:10;" d="M241.671,267.511
			c0,0.835-0.677,1.512-1.512,1.512c-0.835,0-1.512-0.677-1.512-1.512c0-0.835,0.677-1.512,1.512-1.512
			C240.994,265.999,241.671,266.676,241.671,267.511z"/>
		<path style="fill:#FFFFFF;stroke:#263238;stroke-linecap:round;stroke-linejoin:round;stroke-miterlimit:10;" d="M242.175,283.74
			c0,0.835-0.677,1.512-1.512,1.512c-0.835,0-1.512-0.677-1.512-1.512c0-0.835,0.677-1.512,1.512-1.512
			C241.498,282.228,242.175,282.905,242.175,283.74z"/>
		<polygon style="fill:#263238;stroke:#263238;stroke-linecap:round;stroke-linejoin:round;stroke-miterlimit:10;" points="
			357.432,438.716 184.747,438.716 175.85,419.275 322.362,419.275 		"/>
		<polygon style="fill:#263238;stroke:#263238;stroke-linecap:round;stroke-linejoin:round;stroke-miterlimit:10;" points="
			350.184,437.94 191.286,437.94 183.099,420.051 317.913,420.051 		"/>
		<g>
			<path style="fill:#FFFFFF;stroke:#263238;stroke-linecap:round;stroke-linejoin:round;stroke-miterlimit:10;" d="
				M166.541,329.758l-0.327,21.636c0,0-1.476,10.286-0.987,19.836c0.49,9.551,6.122,38.449,6.122,38.449s-8.571,6.367-8.571,8.816
				c0,2.449-2.204,14.449-1.225,15.428c0.98,0.979,8.326,5.388,11.51,6.122c3.184,0.735,10.531-3.918,10.531-3.918l-4.653-11.51
				l1.225-4.163c0,0,7.592-2.449,8.326-3.429c0.735-0.979-2.694-13.224-2.694-13.224s4.334-23.051,4.824-28.194
				c0.49-5.143-2.115-17.209-2.115-18.188s0.682-22.11,0.682-22.11L166.541,329.758z"/>
			<path style="fill:#FFFFFF;stroke:#263238;stroke-linecap:round;stroke-linejoin:round;stroke-miterlimit:10;" d="
				M183.878,414.848c0,0-5.257,10.171-4.686,12.457c0.572,2.286,3.314,4.8,5.257,4c1.943-0.8,1.257-3.086,4.228-6.057
				c2.971-2.971,3.771-7.657,3.086-9.6c-0.686-1.943-6.286-8.228-6.286-8.228"/>
			
				<line style="fill:none;stroke:#263238;stroke-linecap:round;stroke-linejoin:round;stroke-miterlimit:10;" x1="178.05" y1="413.82" x2="178.941" y2="424.618"/>
			<path style="fill:none;stroke:#263238;stroke-linecap:round;stroke-linejoin:round;stroke-miterlimit:10;" d="M168.679,416.791
				c0,0,1.714,10.171,3.086,12.114c1.371,1.943,9.485,8.114,10.285,8.114"/>
			<path style="fill:none;stroke:#263238;stroke-linecap:round;stroke-linejoin:round;stroke-miterlimit:10;" d="M163.879,421.02
				c0,0,1.943,5.371,4.343,7.657c2.4,2.286,11.543,9.257,11.543,9.257"/>
			<path style="fill:none;stroke:#263238;stroke-linecap:round;stroke-linejoin:round;stroke-miterlimit:10;" d="M162.736,427.991
				c0,0,9.943,10.171,11.771,11.085c1.829,0.914,2.628,0.343,2.628,0.343"/>
		</g>
		<g>
			<g>
				<path style="fill:#FFFFFF;stroke:#263238;stroke-linecap:round;stroke-linejoin:round;stroke-miterlimit:10;" d="
					M308.712,332.719l1.016,18.208c0,0,11.397,13.404,13.289,22.778c1.892,9.374,6.36,29.551,6.36,29.551s1.441,2.798,4.725,2.364
					c5.634-0.744,7.244,2.96,7.547,4.146c0.607,2.373,7.206,14.317,7.732,15.598c1.193,2.903-0.741,8.407-0.741,8.407l-17.409-9.76
					l2.658-3.295l-5.877-3.788c0,0-7.962-0.491-8.916-1.258c-0.955-0.767-4.04-11.744-4.04-11.744s-14.893-21.742-17.668-26.1
					c-6.558-10.3-8.376-18.86-8.619-19.809c-0.243-0.949-5.908-20.456-5.908-20.456L308.712,332.719z"/>
				<path style="fill:#FFFFFF;stroke:#263238;stroke-linecap:round;stroke-linejoin:round;stroke-miterlimit:10;" d="
					M323.025,412.416c0,0,7.614,8.551,7.627,10.907c0.013,2.356-2.021,5.471-4.102,5.178c-2.08-0.294-1.983-2.678-5.598-4.82
					c-3.615-2.142-5.551-6.483-5.368-8.536c0.183-2.052,4.05-9.529,4.05-9.529"/>
			</g>
			<path style="fill:none;stroke:#263238;stroke-linecap:round;stroke-linejoin:round;stroke-miterlimit:10;" d="M341.649,409.766
				c0,0,1.701,11.268,2.02,12.331c0.319,1.063-4.571,6.059-4.571,6.059"/>
			<path style="fill:#FFFFFF;stroke:#263238;stroke-linecap:round;stroke-linejoin:round;stroke-miterlimit:10;" d="
				M333.357,425.073c0,0,2.126-3.614,2.126-3.933c0-0.319-3.72-5.315-4.89-5.634c-1.169-0.319-3.614,1.063-3.614,1.063"/>
			<path style="fill:none;stroke:#263238;stroke-linecap:round;stroke-linejoin:round;stroke-miterlimit:10;" d="M346.007,418.589
				c0,0,0.744,5.528-4.039,11.055"/>
			<path style="fill:none;stroke:#263238;stroke-linecap:round;stroke-linejoin:round;stroke-miterlimit:10;" d="M348.771,423.798
				c0,0-0.638,5.74-3.295,7.973"/>
		</g>
		<path style="fill:#92E3A9;stroke:#263238;stroke-linecap:round;stroke-linejoin:round;stroke-miterlimit:10;" d="M221.26,238.457
			c0,0-1.576,0.198-2.953,2.113c-1.377,1.915-9.435,10.814-9.412,11.532c0.023,0.718,7.637,18.277,15.792,16.847
			c8.154-1.429,15.739-7.15,15.739-7.15s10.898,7.818,16.933,7.611c6.036-0.207,7.895-5.013,8.382-7.76
			c0.487-2.747-0.504-11.192-3.048-14.266c-2.545-3.074-7.129-6.941-7.129-6.941L221.26,238.457z"/>
		<path style="fill:#FFFFFF;stroke:#263238;stroke-linecap:round;stroke-linejoin:round;stroke-miterlimit:10;" d="M222.792,223.459
			c0,0-2.719,18.344-2.933,20.651c-0.261,2.818,18.443,18.768,20.566,17.689c2.123-1.079,13.644-9.665,16.556-17.525
			c0.608-1.64-0.922-19.057-0.922-19.057s-7.741,9.15-13.777,9.357C236.248,234.782,222.792,223.459,222.792,223.459z"/>
		<polygon style="fill:#263238;stroke:#263238;stroke-linecap:round;stroke-linejoin:round;stroke-miterlimit:10;" points="
			236.233,238.561 221.26,238.457 222.792,223.459 		"/>
		<g>
			<path style="fill:#FFFFFF;stroke:#263238;stroke-linecap:round;stroke-linejoin:round;stroke-miterlimit:10;" d="
				M265.686,176.248c0.391-1.844,0.972-5.376,0.527-8.56c-0.638-4.558-3.44-5.116-3.44-5.116s1.799-0.062-0.775-3.735
				c-2.574-3.674-9.46-3.929-9.46-3.929s0,0,1.119-0.856c1.119-0.856-0.227-1.955-11.819-0.903
				c-11.593,1.052-12.284,5.001-12.284,5.001l0.023,0.011c-4.626,2.835-9.733,8.664-9.733,8.664s-7.245,3.847-7.879,9.594
				c-0.634,5.747,1.64,10.249,1.64,10.249l1.001,10.762c0,0-2.153-0.744-3.193,2.563c-1.04,3.307,0.743,7.826,2.336,11.534
				c1.593,3.708,4.252,4.925,4.252,4.925s1.904,8.277,3.107,10.035c1.203,1.758,10.008,10.78,15.126,12.077
				c5.118,1.297,9.355,0.661,12.717-1.745c3.361-2.405,9.288-11.605,9.874-13.752c0.586-2.146,0.818-5.099,0.818-5.099
				s3.779-4.71,5.272-9.177c1.494-4.468,2.36-8.096,1.489-9.702c-0.87-1.606-1.862-1.899-1.862-1.899s1.748-11.837,1.59-16.739
				C266.094,179.259,265.948,177.819,265.686,176.248z"/>
			<path style="fill:#263238;" d="M266.213,167.688c-0.638-4.558-3.44-5.116-3.44-5.116s1.799-0.062-0.775-3.735
				c-2.574-3.674-9.46-3.929-9.46-3.929s0,0,1.119-0.856c1.119-0.856-0.227-1.955-11.819-0.903
				c-11.593,1.052-12.284,5.001-12.284,5.001l0.023,0.011c-4.626,2.835-9.733,8.664-9.733,8.664s-7.245,3.847-7.879,9.594
				c-0.178,1.614-0.122,3.123,0.043,4.468c4.774-6.208,12.074-13.031,21.373-13.589c17.339-1.04,28.979,7.683,29.933,9.653
				c0.472,0.975,1.694,3.23,2.809,5.261c0.021-0.649,0.027-1.245,0.01-1.762c-0.038-1.19-0.184-2.63-0.446-4.202
				C266.077,174.403,266.658,170.872,266.213,167.688z"/>
			<path style="fill:#263238;" d="M214.604,197.428c0,0,1.567,2.891,2.379,2.699c0.813-0.191,0.787-6.079,0.993-9.848
				c0.206-3.769-0.685-6.029-0.685-6.029l-3.394,6.496L214.604,197.428z"/>
			<path style="fill:#263238;" d="M263.361,185.942c0,0-1.246,7.076-1.162,9.691s0.342,5.55,0.342,5.55l2-3.994l1.162-9.691
				C265.703,187.498,264.316,185.092,263.361,185.942z"/>
			<path style="fill:#92E3A9;stroke:#263238;stroke-linecap:round;stroke-linejoin:round;stroke-miterlimit:10;" d="
				M213.962,187.636c0,0-2.807-0.722-1.471-5.02c1.335-4.299,5.4-15.397,19.7-18.832s23.171,2.137,27.708,5.744
				c4.537,3.607,5.643,7.834,6.233,10.922c0.59,3.088-0.522,7.997-0.522,7.997s-13.417-15.926-23.738-16.063
				c-10.321-0.137-19.16,6.667-21.239,8.21c-2.079,1.544-3.341,3.657-3.341,3.657L213.962,187.636z"/>
			<path style="fill:#92E3A9;stroke:#263238;stroke-linecap:round;stroke-linejoin:round;stroke-miterlimit:10;" d="
				M213.948,186.667l0.069,5.17l3.57-4.462c0,0,0.178,3.391,6.068,1.963c5.89-1.428,11.244-9.638,18.383-9.459
				c7.139,0.178,11.958,9.281,16.242,11.066c4.284,1.785,6.425-0.714,6.425-0.714l1.249,0.714l0.094-3.447
				c0,0-13.123-13.687-22.047-16.007C235.077,169.17,223.517,176.142,213.948,186.667z"/>
			<path style="fill:none;stroke:#263238;stroke-linecap:round;stroke-linejoin:round;stroke-miterlimit:10;" d="M235.73,212.734
				c0,0,3.387,3.483,6.321,3.055c2.934-0.428,4.343-2.439,4.343-2.439"/>
			<path style="fill:none;stroke:#263238;stroke-linecap:round;stroke-linejoin:round;stroke-miterlimit:10;" d="M231.267,218.593
				c0,0,6.466,5.522,11.822,4.03s6.939-3.182,6.939-3.182"/>
			<path style="fill:none;stroke:#263238;stroke-linecap:round;stroke-linejoin:round;stroke-miterlimit:10;" d="M235.151,194.761
				c0,0-4.147-1.657-7.265-1.877c-3.118-0.22-5.023,1.644-5.023,1.644"/>
			<path style="fill:none;stroke:#263238;stroke-linecap:round;stroke-linejoin:round;stroke-miterlimit:10;" d="M248.116,195.625
				c0,0,8.068-3.712,11.455-0.229"/>
			<path style="fill:#263238;" d="M232.412,199.353c0.048,1.504-0.709,2.75-1.69,2.784c-0.982,0.034-1.817-1.158-1.866-2.662
				c-0.048-1.504,0.708-2.75,1.69-2.784C231.529,196.657,232.364,197.849,232.412,199.353z"/>
			<path style="fill:#263238;" d="M253.814,200.337c0.048,1.504-0.708,2.75-1.69,2.784c-0.982,0.034-1.817-1.158-1.866-2.662
				c-0.048-1.504,0.708-2.75,1.69-2.784C252.93,197.641,253.765,198.833,253.814,200.337z"/>
		</g>
		<path style="fill:#263238;stroke:#263238;stroke-linecap:round;stroke-linejoin:round;stroke-miterlimit:10;" d="M184.747,438.716
			c0,0-0.207,1.314,1.852,1.726c2.06,0.412,4.325,0.412,4.325,0.412h163.326c0,0,3.068-0.774,3.182-2.138H184.747z"/>
	</g>
</g>
<g id="Devices">
	<g>
		<polygon style="fill:#828282;stroke:#263238;stroke-linecap:round;stroke-linejoin:round;stroke-miterlimit:10;" points="
			341.39,391.755 337.687,386.063 358.194,306.562 361.958,312.557 		"/>
		<polygon style="fill:#263238;stroke:#263238;stroke-linecap:round;stroke-linejoin:round;stroke-miterlimit:10;" points="
			447.656,391.755 341.39,391.755 361.958,312.557 468.223,312.557 		"/>
		<polygon style="fill:#828282;stroke:#263238;stroke-linecap:round;stroke-linejoin:round;stroke-miterlimit:10;" points="
			361.958,312.557 358.194,306.562 464.459,306.562 468.223,312.557 		"/>
		<path style="fill:#263238;stroke:#263238;stroke-linecap:round;stroke-linejoin:round;stroke-miterlimit:10;" d="M387.03,347.512
			c0,0-10.313,6.563-11.25,8.906c-1.868,4.67-2.227,10.487-3.157,15.393c-1.797,9.478-3.51,18.973-5.106,28.487
			c-0.924,5.51-1.838,11.028-2.548,16.571c-1.124,8.768,5.01,19.925,15.117,19.914c10.504-0.012,24.806-0.208,24.806-0.208
			L387.03,347.512z"/>
		<path style="fill:#B5B5B5;stroke:#263238;stroke-linecap:round;stroke-linejoin:round;stroke-miterlimit:10;" d="M477.858,427.498
			l-10.661-87.196c-0.637-5.209-5.376-8.916-10.585-8.279h-64.687l12.967,106.06h62.04c0.791,0.107,1.606,0.128,2.435,0.026
			l0.213-0.026C474.788,437.447,478.495,432.707,477.858,427.498z"/>
		<path style="fill:#B5B5B5;stroke:#263238;stroke-linecap:round;stroke-linejoin:round;stroke-miterlimit:10;" d="M405.351,438.027
			l-1.132,0.139c-4.955,0.606-9.463-2.92-10.069-7.875l-10.773-88.116c-0.606-4.955,2.92-9.463,7.875-10.069l1.132-0.138
			c4.955-0.606,9.463,2.92,10.069,7.875l10.773,88.116C413.832,432.913,410.306,437.421,405.351,438.027z"/>
		<polygon style="fill:#263238;stroke:#263238;stroke-linecap:round;stroke-linejoin:round;stroke-miterlimit:10;" points="
			410.179,372.356 467.387,372.356 464.063,345.169 406.855,345.169 		"/>
		<polygon style="fill:#FFFFFF;stroke:#263238;stroke-linecap:round;stroke-linejoin:round;stroke-miterlimit:10;" points="
			416.272,421.575 473.48,421.575 468.281,377.044 411.073,377.044 		"/>
	</g>
	<g>
		<polygon style="fill:#828282;stroke:#263238;stroke-linecap:round;stroke-linejoin:round;stroke-miterlimit:10;" points="
			13.359,391.755 9.656,386.063 30.162,306.562 33.926,312.557 		"/>
		<polygon style="fill:#263238;stroke:#263238;stroke-linecap:round;stroke-linejoin:round;stroke-miterlimit:10;" points="
			119.624,391.755 13.359,391.755 33.926,312.557 140.192,312.557 		"/>
		<polygon style="fill:#828282;stroke:#263238;stroke-linecap:round;stroke-linejoin:round;stroke-miterlimit:10;" points="
			33.926,312.557 30.162,306.562 136.428,306.562 140.192,312.557 		"/>
		<path style="fill:#263238;stroke:#263238;stroke-linecap:round;stroke-linejoin:round;stroke-miterlimit:10;" d="M58.998,347.512
			c0,0-10.313,6.563-11.25,8.906c-1.868,4.67-2.227,10.487-3.157,15.393c-1.797,9.478-3.51,18.973-5.106,28.487
			c-0.924,5.51-1.838,11.028-2.548,16.571c-1.124,8.768,5.01,19.925,15.117,19.914c10.504-0.012,24.806-0.208,24.806-0.208
			L58.998,347.512z"/>
		<path style="fill:#B5B5B5;stroke:#263238;stroke-linecap:round;stroke-linejoin:round;stroke-miterlimit:10;" d="M149.827,427.498
			l-10.661-87.196c-0.637-5.209-5.376-8.916-10.585-8.279H63.893l12.967,106.06h62.04c0.791,0.107,1.606,0.128,2.435,0.026
			l0.213-0.026C146.757,437.447,150.463,432.707,149.827,427.498z"/>
		<path style="fill:#B5B5B5;stroke:#263238;stroke-linecap:round;stroke-linejoin:round;stroke-miterlimit:10;" d="M77.32,438.027
			l-1.132,0.139c-4.955,0.606-9.463-2.92-10.069-7.875l-10.773-88.116c-0.606-4.955,2.92-9.463,7.875-10.069l1.132-0.138
			c4.955-0.606,9.463,2.92,10.069,7.875l10.773,88.116C85.801,432.913,82.275,437.421,77.32,438.027z"/>
		<polygon style="fill:#263238;stroke:#263238;stroke-linecap:round;stroke-linejoin:round;stroke-miterlimit:10;" points="
			82.147,372.356 139.355,372.356 136.031,345.169 78.823,345.169 		"/>
		<polygon style="fill:#FFFFFF;stroke:#263238;stroke-linecap:round;stroke-linejoin:round;stroke-miterlimit:10;" points="
			88.241,421.575 145.449,421.575 140.25,377.044 83.042,377.044 		"/>
	</g>
</g>
<g id="Food">
	<g>
		<g>
			
				<ellipse style="fill:#FFFFFF;stroke:#263238;stroke-linecap:round;stroke-linejoin:round;stroke-miterlimit:10;" cx="232.022" cy="427.618" rx="36.856" ry="8.883"/>
			<path style="fill:#FFFFFF;stroke:#263238;stroke-linecap:round;stroke-linejoin:round;stroke-miterlimit:10;" d="
				M261.696,427.618c0,3.784-13.285,6.851-29.674,6.851c-16.388,0-29.674-3.067-29.674-6.851c0-3.784,13.286-6.851,29.674-6.851
				C248.41,420.767,261.696,423.835,261.696,427.618z"/>
		</g>
		<g>
			<path style="fill:#E8E8E8;stroke:#263238;stroke-linecap:round;stroke-linejoin:round;stroke-miterlimit:10;" d="
				M236.491,414.586c0,0-5.707-0.543-11.414-0.272c-5.707,0.272-17.936,3.261-19.023,3.533c-1.087,0.272-3.261,1.087-4.62,1.63
				c-1.359,0.543-1.902,3.261-0.272,4.348c1.63,1.087,42.666,14.131,45.383,12.501c2.718-1.63,5.979-14.403,5.979-16.577
				C252.525,417.575,241.383,415.129,236.491,414.586z"/>
			<path style="fill:#BFBFBF;stroke:#263238;stroke-linecap:round;stroke-linejoin:round;stroke-miterlimit:10;" d="M226.56,417.404
				c10.894-0.519,17.81,1.21,21.96,2.248c1.645,0.411,2.951,0.656,3.944,0.806c0.039-0.293,0.061-0.536,0.061-0.708
				c0-2.174-11.142-4.62-16.034-5.163c0,0-5.707-0.543-11.414-0.272c-5.707,0.272-17.936,3.261-19.023,3.533
				c-1.087,0.272-3.261,1.087-4.62,1.63c-1.359,0.543-1.902,3.261-0.272,4.348l3.956-1.58
				C205.119,422.246,215.667,417.923,226.56,417.404z"/>
			<path style="fill:#FFFFFF;stroke:#263238;stroke-linecap:round;stroke-linejoin:round;stroke-miterlimit:10;" d="M203.39,421.381
				c0,0-2.421,0.173-1.556,1.037c0.865,0.865,5.706,2.767,8.818,3.631c3.112,0.865,35.894,10.277,35.894,10.277l-41.427-14.081
				C205.119,422.246,205.617,418.936,203.39,421.381z"/>
			<path style="fill:#92E3A9;stroke:#263238;stroke-linecap:round;stroke-linejoin:round;stroke-miterlimit:10;" d="
				M228.116,422.505c0,0.907-2.168,1.643-4.842,1.643s-4.842-0.736-4.842-1.643c0-0.907,2.168-1.643,4.842-1.643
				S228.116,421.598,228.116,422.505z"/>
			<path style="fill:#92E3A9;stroke:#263238;stroke-linecap:round;stroke-linejoin:round;stroke-miterlimit:10;" d="
				M244.889,422.678c0,0.812-1.935,1.47-4.323,1.47c-2.387,0-4.323-0.658-4.323-1.47s1.935-1.47,4.323-1.47
				C242.953,421.208,244.889,421.866,244.889,422.678z"/>
			<path style="fill:#92E3A9;stroke:#263238;stroke-linecap:round;stroke-linejoin:round;stroke-miterlimit:10;" d="
				M240.566,428.297c0,0.764-1.626,1.383-3.631,1.383s-3.631-0.619-3.631-1.383c0-0.764,1.626-1.383,3.631-1.383
				S240.566,427.534,240.566,428.297z"/>
			<path style="fill:#92E3A9;stroke:#263238;stroke-linecap:round;stroke-linejoin:round;stroke-miterlimit:10;" d="
				M235.551,420.084c0,0.525-1.161,0.951-2.594,0.951c-1.432,0-2.594-0.426-2.594-0.951c0-0.525,1.161-0.951,2.594-0.951
				C234.39,419.133,235.551,419.559,235.551,420.084z"/>
			
				<ellipse style="fill:#92E3A9;stroke:#263238;stroke-linecap:round;stroke-linejoin:round;stroke-miterlimit:10;" cx="245.753" cy="427.433" rx="2.594" ry="1.038"/>
		</g>
	</g>
	<g>
		<g>
			<path style="fill:#263238;stroke:#263238;stroke-linecap:round;stroke-linejoin:round;stroke-miterlimit:10;" d="
				M270.689,384.156l3.341,43.07c0,0.672,4.619,1.218,10.317,1.218s10.317-0.545,10.317-1.218l3.353-43.07H270.689z"/>
			<path style="fill:#FFFFFF;stroke:#263238;stroke-linecap:round;stroke-linejoin:round;stroke-miterlimit:10;" d="M274.03,427.226
				c0,0.591,3.571,1.084,8.305,1.194c1.376-1.86,2.865-4.255,4.464-7.352c3.186-6.172,6.467-10.738,9.442-14.1l1.776-22.813h-3.643
				c-3.768,4.094-8.081,9.33-11.527,15.029c-2.911,4.815-6.605,8.553-10.112,11.36L274.03,427.226z"/>
			<path style="fill:#FFFFFF;stroke:#263238;stroke-linecap:round;stroke-linejoin:round;stroke-miterlimit:10;" d="
				M269.633,380.896v4.296c0,0.841,6.588,1.522,14.714,1.522c8.126,0,14.714-0.681,14.714-1.522v-4.296H269.633z"/>
			<path style="fill:#FFFFFF;stroke:#263238;stroke-linecap:round;stroke-linejoin:round;stroke-miterlimit:10;" d="
				M299.061,380.896c0,0.841-6.588,1.522-14.714,1.522c-8.126,0-14.714-0.681-14.714-1.522c0-0.841,6.588-1.522,14.714-1.522
				C292.473,379.374,299.061,380.056,299.061,380.896z"/>
		</g>
		<rect x="271.31" y="430.974" style="fill:#FFFFFF;" width="48.572" height="2.226"/>
	</g>
</g>
<g id="Speech_Bubble">
	<g>
		<path style="fill:#263238;stroke:#263238;stroke-linecap:round;stroke-linejoin:round;stroke-miterlimit:10;" d="M368.34,147.877
			h-61.835c-6.214,0-11.251,5.037-11.251,11.251v33.508c0,5.817,4.415,10.602,10.077,11.189l-10.721,14.225l30.28-14.163h43.449
			c6.214,0,11.251-5.037,11.251-11.251v-33.508C379.591,152.915,374.554,147.877,368.34,147.877z"/>
		<path style="fill:#92E3A9;stroke:#263238;stroke-linecap:round;stroke-linejoin:round;stroke-miterlimit:10;" d="M365.765,145.302
			H303.93c-6.214,0-11.251,5.037-11.251,11.251v33.508c0,5.817,4.415,10.602,10.077,11.189l-8.146,16.8l27.705-16.739h43.449
			c6.214,0,11.251-5.037,11.251-11.251v-33.508C377.016,150.339,371.979,145.302,365.765,145.302z"/>
		<g>
			<path style="fill:#263238;stroke:#263238;stroke-linecap:round;stroke-linejoin:round;stroke-miterlimit:10;" d="
				M323.903,174.917c0-1.778-1.441-3.219-3.219-3.219s-3.219,1.441-3.219,3.219c0,1.778,1.441,3.219,3.219,3.219
				S323.903,176.694,323.903,174.917z"/>
			<path style="fill:#263238;stroke:#263238;stroke-linecap:round;stroke-linejoin:round;stroke-miterlimit:10;" d="
				M338.066,174.917c0-1.778-1.441-3.219-3.219-3.219c-1.778,0-3.219,1.441-3.219,3.219c0,1.778,1.441,3.219,3.219,3.219
				C336.625,178.136,338.066,176.694,338.066,174.917z"/>
			<path style="fill:#263238;stroke:#263238;stroke-linecap:round;stroke-linejoin:round;stroke-miterlimit:10;" d="M352.23,174.917
				c0-1.778-1.441-3.219-3.219-3.219s-3.219,1.441-3.219,3.219c0,1.778,1.441,3.219,3.219,3.219S352.23,176.694,352.23,174.917z"/>
		</g>
	</g>
</g>
</svg>
