<?xml version="1.0" encoding="utf-8"?>
<!-- Generator: Adobe Illustrator 27.5.0, SVG Export Plug-In . SVG Version: 6.00 Build 0)  -->
<svg version="1.1" xmlns="http://www.w3.org/2000/svg" xmlns:xlink="http://www.w3.org/1999/xlink" x="0px" y="0px"
	 viewBox="0 0 500 500" style="enable-background:new 0 0 500 500;" xml:space="preserve">
<g id="Background_Simple">
	<g>
		<path style="fill:#92E3A9;" d="M485.643,269.713c0.082-1.078,0.167-2.149,0.306-3.219c1.497-11.491,8.481-97.868-100.024-206.504
			c-116.617-116.757-244.061,14.382-266.075,48.66s-28.427,86.918-45.419,52.279c-10.505-21.414,16.876-48.228-21.908-37.027
			c-24.884,7.187-71.103,70.778-33.215,180.04s144.305,192.614,246.575,186.534c131.514-7.818,208.952-103.196,202.805-110.287
			c-6.147-7.091-55.13,14.063-44.368-0.671C434.915,365.016,482.553,310.255,485.643,269.713z"/>
		<path style="opacity:0.8;fill:#FFFFFF;" d="M485.643,269.713c0.082-1.078,0.167-2.149,0.306-3.219
			c1.497-11.491,8.481-97.868-100.024-206.504c-116.617-116.757-244.061,14.382-266.075,48.66s-28.427,86.918-45.419,52.279
			c-10.505-21.414,16.876-48.228-21.908-37.027c-24.884,7.187-71.103,70.778-33.215,180.04s144.305,192.614,246.575,186.534
			c131.514-7.818,208.952-103.196,202.805-110.287c-6.147-7.091-55.13,14.063-44.368-0.671
			C434.915,365.016,482.553,310.255,485.643,269.713z"/>
	</g>
</g>
<g id="Plant">
	<g>
		<g>
			<line style="fill:none;stroke:#263238;stroke-width:2;stroke-miterlimit:10;" x1="37.76" y1="155.439" x2="58.48" y2="353.976"/>
			<g>
				<g>
					
						<line style="fill:none;stroke:#263238;stroke-width:2;stroke-miterlimit:10;" x1="55.141" y1="315.981" x2="45.748" y2="306.06"/>
					<path style="fill:#92E3A9;stroke:#263238;stroke-miterlimit:10;" d="M48.601,309.033c0,0,0.269-4.389-3.738-7.968
						c-2.411-2.153-15.1-7.491-16.304-3.022C27.249,302.904,40.237,312.449,48.601,309.033z"/>
					
						<line style="fill:none;stroke:#263238;stroke-width:0.5;stroke-miterlimit:10;" x1="48.601" y1="309.033" x2="36.522" y2="301.505"/>
				</g>
				<g>
					
						<line style="fill:none;stroke:#263238;stroke-width:2;stroke-miterlimit:10;" x1="57.497" y1="338.56" x2="48.104" y2="328.639"/>
					<path style="fill:#92E3A9;stroke:#263238;stroke-miterlimit:10;" d="M50.958,331.612c0,0,0.269-4.388-3.739-7.967
						c-2.411-2.153-15.1-7.491-16.304-3.022C29.606,325.483,42.593,335.029,50.958,331.612z"/>
					
						<line style="fill:none;stroke:#263238;stroke-width:0.5;stroke-miterlimit:10;" x1="50.958" y1="331.612" x2="38.878" y2="324.084"/>
				</g>
				<g>
					
						<line style="fill:none;stroke:#263238;stroke-width:2;stroke-miterlimit:10;" x1="49.39" y1="260.883" x2="39.998" y2="250.962"/>
					<path style="fill:#92E3A9;stroke:#263238;stroke-miterlimit:10;" d="M42.851,253.935c0,0,0.269-4.389-3.738-7.968
						c-2.411-2.153-15.1-7.491-16.304-3.022C21.499,247.805,34.487,257.351,42.851,253.935z"/>
					
						<line style="fill:none;stroke:#263238;stroke-width:0.5;stroke-miterlimit:10;" x1="42.851" y1="253.935" x2="30.771" y2="246.407"/>
				</g>
				<g>
					
						<line style="fill:none;stroke:#263238;stroke-width:2;stroke-miterlimit:10;" x1="51.747" y1="283.463" x2="42.354" y2="273.542"/>
					<path style="fill:#92E3A9;stroke:#263238;stroke-miterlimit:10;" d="M45.208,276.514c0,0,0.269-4.388-3.739-7.968
						c-2.411-2.153-15.1-7.491-16.304-3.022C23.856,270.385,36.843,279.931,45.208,276.514z"/>
					
						<line style="fill:none;stroke:#263238;stroke-width:0.5;stroke-miterlimit:10;" x1="45.208" y1="276.514" x2="33.128" y2="268.986"/>
				</g>
				<g>
					
						<line style="fill:none;stroke:#263238;stroke-width:2;stroke-miterlimit:10;" x1="45.563" y1="224.205" x2="36.17" y2="214.284"/>
					<path style="fill:#92E3A9;stroke:#263238;stroke-miterlimit:10;" d="M39.023,217.256c0,0,0.269-4.389-3.738-7.968
						c-2.411-2.153-15.1-7.491-16.304-3.022C17.671,211.127,30.659,220.673,39.023,217.256z"/>
					
						<line style="fill:none;stroke:#263238;stroke-width:0.5;stroke-miterlimit:10;" x1="39.023" y1="217.256" x2="26.943" y2="209.729"/>
				</g>
				<g>
					
						<line style="fill:none;stroke:#263238;stroke-width:2;stroke-miterlimit:10;" x1="41.718" y1="187.366" x2="32.325" y2="177.445"/>
					<path style="fill:#92E3A9;stroke:#263238;stroke-miterlimit:10;" d="M35.179,180.418c0,0,0.269-4.389-3.739-7.967
						c-2.411-2.153-15.1-7.492-16.304-3.023C13.827,174.288,26.815,183.834,35.179,180.418z"/>
					
						<line style="fill:none;stroke:#263238;stroke-width:0.5;stroke-miterlimit:10;" x1="35.179" y1="180.418" x2="23.099" y2="172.89"/>
				</g>
				<g>
					
						<line style="fill:none;stroke:#263238;stroke-width:2;stroke-miterlimit:10;" x1="53.562" y1="302.622" x2="60.704" y2="290.975"/>
					<path style="fill:#92E3A9;stroke:#263238;stroke-miterlimit:10;" d="M58.525,294.473c0,0-1.169-4.238,2.013-8.568
						c1.914-2.605,13.228-10.448,15.329-6.324C78.152,284.067,67.415,296.088,58.525,294.473z"/>
					
						<line style="fill:none;stroke:#263238;stroke-width:0.5;stroke-miterlimit:10;" x1="58.525" y1="294.473" x2="69.403" y2="284.076"/>
				</g>
				<g>
					
						<line style="fill:none;stroke:#263238;stroke-width:2;stroke-miterlimit:10;" x1="47.361" y1="243.204" x2="54.503" y2="231.557"/>
					<path style="fill:#92E3A9;stroke:#263238;stroke-miterlimit:10;" d="M52.324,235.055c0,0-1.169-4.239,2.013-8.568
						c1.915-2.605,13.228-10.448,15.329-6.324C71.951,224.649,61.214,236.67,52.324,235.055z"/>
					
						<line style="fill:none;stroke:#263238;stroke-width:0.5;stroke-miterlimit:10;" x1="52.324" y1="235.055" x2="63.202" y2="224.658"/>
				</g>
				<g>
					
						<line style="fill:none;stroke:#263238;stroke-width:2;stroke-miterlimit:10;" x1="44.636" y1="217.092" x2="51.778" y2="205.445"/>
					<path style="fill:#92E3A9;stroke:#263238;stroke-miterlimit:10;" d="M49.599,208.943c0,0-1.169-4.239,2.013-8.568
						c1.914-2.605,13.228-10.448,15.329-6.324C69.226,198.537,58.489,210.559,49.599,208.943z"/>
					
						<line style="fill:none;stroke:#263238;stroke-width:0.5;stroke-miterlimit:10;" x1="49.599" y1="208.943" x2="60.477" y2="198.546"/>
				</g>
				<g>
					
						<line style="fill:none;stroke:#263238;stroke-width:2;stroke-miterlimit:10;" x1="40.641" y1="178.811" x2="47.783" y2="167.165"/>
					<path style="fill:#92E3A9;stroke:#263238;stroke-miterlimit:10;" d="M45.604,170.663c0,0-1.169-4.239,2.013-8.568
						c1.914-2.604,13.228-10.448,15.328-6.323C65.231,160.257,54.494,172.279,45.604,170.663z"/>
					
						<line style="fill:none;stroke:#263238;stroke-width:0.5;stroke-miterlimit:10;" x1="45.604" y1="170.663" x2="56.482" y2="160.266"/>
					<path style="fill:#92E3A9;stroke:#263238;stroke-miterlimit:10;" d="M37.586,154.337c0,0-1.169-4.238,2.013-8.568
						c1.915-2.605,13.228-10.448,15.329-6.323C57.213,143.931,46.476,155.953,37.586,154.337z"/>
					
						<line style="fill:none;stroke:#263238;stroke-width:0.5;stroke-miterlimit:10;" x1="37.586" y1="154.337" x2="48.463" y2="143.94"/>
					<path style="fill:#92E3A9;stroke:#263238;stroke-miterlimit:10;" d="M38.216,154.785c0,0-4.338,0.718-8.31-2.9
						c-2.389-2.177-9.003-14.25-4.681-15.907C29.926,134.176,40.756,146.114,38.216,154.785z"/>
					
						<line style="fill:none;stroke:#263238;stroke-width:0.5;stroke-miterlimit:10;" x1="38.216" y1="154.785" x2="29.018" y2="142.877"/>
				</g>
			</g>
		</g>
		<g>
			
				<line style="fill:none;stroke:#263238;stroke-width:2;stroke-miterlimit:10;" x1="92.409" y1="182.781" x2="72.183" y2="373.32"/>
			<g>
				<g>
					
						<line style="fill:none;stroke:#263238;stroke-width:2;stroke-miterlimit:10;" x1="76.361" y1="343.462" x2="69.213" y2="331.819"/>
					<path style="fill:#92E3A9;stroke:#263238;stroke-miterlimit:10;" d="M71.393,335.316c0,0,1.166-4.239-2.018-8.567
						c-1.916-2.604-13.234-10.44-15.333-6.315C51.761,324.921,62.505,336.937,71.393,335.316z"/>
					
						<line style="fill:none;stroke:#263238;stroke-width:0.5;stroke-miterlimit:10;" x1="71.393" y1="335.316" x2="61.122" y2="325.462"/>
				</g>
				<g>
					
						<line style="fill:none;stroke:#263238;stroke-width:2;stroke-miterlimit:10;" x1="82.079" y1="288.36" x2="74.93" y2="276.718"/>
					<path style="fill:#92E3A9;stroke:#263238;stroke-miterlimit:10;" d="M77.111,280.214c0,0,1.167-4.239-2.018-8.566
						c-1.916-2.604-13.234-10.44-15.332-6.315C57.478,269.82,68.222,281.836,77.111,280.214z"/>
					
						<line style="fill:none;stroke:#263238;stroke-width:0.5;stroke-miterlimit:10;" x1="77.111" y1="280.214" x2="66.84" y2="270.361"/>
				</g>
				<g>
					
						<line style="fill:none;stroke:#263238;stroke-width:2;stroke-miterlimit:10;" x1="79.736" y1="310.941" x2="72.587" y2="299.299"/>
					<path style="fill:#92E3A9;stroke:#263238;stroke-miterlimit:10;" d="M74.768,302.795c0,0,1.166-4.239-2.018-8.567
						c-1.916-2.603-13.234-10.44-15.332-6.314C55.135,292.401,65.879,304.416,74.768,302.795z"/>
					
						<line style="fill:none;stroke:#263238;stroke-width:0.5;stroke-miterlimit:10;" x1="74.768" y1="302.795" x2="64.497" y2="292.941"/>
				</g>
				<g>
					
						<line style="fill:none;stroke:#263238;stroke-width:2;stroke-miterlimit:10;" x1="85.885" y1="251.68" x2="78.736" y2="240.037"/>
					<path style="fill:#92E3A9;stroke:#263238;stroke-miterlimit:10;" d="M80.917,243.533c0,0,1.166-4.239-2.018-8.566
						c-1.916-2.604-13.234-10.44-15.333-6.315C61.285,233.139,72.028,245.154,80.917,243.533z"/>
					
						<line style="fill:none;stroke:#263238;stroke-width:0.5;stroke-miterlimit:10;" x1="80.917" y1="243.533" x2="70.646" y2="233.68"/>
				</g>
				<g>
					
						<line style="fill:none;stroke:#263238;stroke-width:2;stroke-miterlimit:10;" x1="89.708" y1="214.839" x2="82.559" y2="203.196"/>
					<path style="fill:#92E3A9;stroke:#263238;stroke-miterlimit:10;" d="M84.74,206.693c0,0,1.166-4.239-2.018-8.566
						c-1.916-2.604-13.234-10.44-15.332-6.315C65.107,196.298,75.851,208.314,84.74,206.693z"/>
					
						<line style="fill:none;stroke:#263238;stroke-width:0.5;stroke-miterlimit:10;" x1="84.74" y1="206.693" x2="74.469" y2="196.839"/>
				</g>
				<g>
					
						<line style="fill:none;stroke:#263238;stroke-width:2;stroke-miterlimit:10;" x1="77.567" y1="330.063" x2="86.954" y2="320.137"/>
					<path style="fill:#92E3A9;stroke:#263238;stroke-miterlimit:10;" d="M84.103,323.111c0,0-0.271-4.389,3.734-7.97
						c2.41-2.155,15.095-7.5,16.302-3.032C105.451,316.969,92.469,326.523,84.103,323.111z"/>
					
						<line style="fill:none;stroke:#263238;stroke-width:0.5;stroke-miterlimit:10;" x1="84.103" y1="323.111" x2="96.887" y2="315.177"/>
				</g>
				<g>
					
						<line style="fill:none;stroke:#263238;stroke-width:2;stroke-miterlimit:10;" x1="83.733" y1="270.642" x2="93.12" y2="260.715"/>
					<path style="fill:#92E3A9;stroke:#263238;stroke-miterlimit:10;" d="M90.268,263.689c0,0-0.271-4.388,3.734-7.97
						c2.41-2.155,15.095-7.5,16.302-3.032C111.617,257.547,98.635,267.101,90.268,263.689z"/>
					
						<line style="fill:none;stroke:#263238;stroke-width:0.5;stroke-miterlimit:10;" x1="90.268" y1="263.689" x2="103.053" y2="255.755"/>
				</g>
				<g>
					
						<line style="fill:none;stroke:#263238;stroke-width:2;stroke-miterlimit:10;" x1="86.443" y1="244.528" x2="95.83" y2="234.602"/>
					<path style="fill:#92E3A9;stroke:#263238;stroke-miterlimit:10;" d="M92.978,237.576c0,0-0.271-4.389,3.734-7.97
						c2.41-2.155,15.095-7.5,16.302-3.032C114.326,231.434,101.344,240.988,92.978,237.576z"/>
					
						<line style="fill:none;stroke:#263238;stroke-width:0.5;stroke-miterlimit:10;" x1="92.978" y1="237.576" x2="105.763" y2="229.642"/>
				</g>
				<g>
					
						<line style="fill:none;stroke:#263238;stroke-width:2;stroke-miterlimit:10;" x1="90.415" y1="206.246" x2="99.802" y2="196.319"/>
					<path style="fill:#92E3A9;stroke:#263238;stroke-miterlimit:10;" d="M96.951,199.294c0,0-0.271-4.388,3.734-7.97
						c2.41-2.155,15.096-7.5,16.302-3.032C118.299,193.152,105.317,202.705,96.951,199.294z"/>
					
						<line style="fill:none;stroke:#263238;stroke-width:0.5;stroke-miterlimit:10;" x1="96.951" y1="199.294" x2="109.735" y2="191.359"/>
					<path style="fill:#92E3A9;stroke:#263238;stroke-miterlimit:10;" d="M92.465,181.666c0,0-0.271-4.389,3.734-7.97
						c2.41-2.154,15.095-7.5,16.302-3.032C113.814,175.524,100.832,185.078,92.465,181.666z"/>
					
						<line style="fill:none;stroke:#263238;stroke-width:0.5;stroke-miterlimit:10;" x1="92.465" y1="181.666" x2="105.25" y2="173.732"/>
					<path style="fill:#92E3A9;stroke:#263238;stroke-miterlimit:10;" d="M92.99,182.235c0,0-4.393-0.19-7.534-4.549
						c-1.89-2.622-5.876-15.799-1.306-16.53C89.12,160.36,97.26,174.272,92.99,182.235z"/>
					
						<line style="fill:none;stroke:#263238;stroke-width:0.5;stroke-miterlimit:10;" x1="92.99" y1="182.235" x2="86.44" y2="168.688"/>
				</g>
			</g>
		</g>
		
			<line style="fill:none;stroke:#263238;stroke-width:2;stroke-miterlimit:10;" x1="68.799" y1="101.931" x2="68.799" y2="353.009"/>
		<g>
			<g>
				
					<line style="fill:none;stroke:#263238;stroke-width:2;stroke-miterlimit:10;" x1="68.999" y1="315.257" x2="60.686" y2="304.415"/>
				<path style="fill:#92E3A9;stroke:#263238;stroke-miterlimit:10;" d="M63.216,307.668c0,0,0.723-4.337-2.891-8.313
					c-2.175-2.392-14.241-9.018-15.902-4.698C42.616,299.355,54.542,310.198,63.216,307.668z"/>
				
					<line style="fill:none;stroke:#263238;stroke-width:0.5;stroke-miterlimit:10;" x1="63.216" y1="307.668" x2="51.983" y2="298.927"/>
			</g>
			<g>
				
					<line style="fill:none;stroke:#263238;stroke-width:2;stroke-miterlimit:10;" x1="68.999" y1="268.073" x2="60.686" y2="257.231"/>
				<path style="fill:#92E3A9;stroke:#263238;stroke-miterlimit:10;" d="M63.216,260.484c0,0,0.723-4.337-2.891-8.313
					c-2.175-2.392-14.241-9.018-15.902-4.698C42.616,252.171,54.542,263.014,63.216,260.484z"/>
				
					<line style="fill:none;stroke:#263238;stroke-width:0.5;stroke-miterlimit:10;" x1="63.216" y1="260.484" x2="51.983" y2="251.743"/>
			</g>
			<g>
				
					<line style="fill:none;stroke:#263238;stroke-width:2;stroke-miterlimit:10;" x1="68.999" y1="212.676" x2="60.686" y2="201.834"/>
				<path style="fill:#92E3A9;stroke:#263238;stroke-miterlimit:10;" d="M63.216,205.087c0,0,0.723-4.337-2.891-8.313
					c-2.175-2.392-14.241-9.018-15.902-4.698C42.616,196.774,54.542,207.617,63.216,205.087z"/>
				
					<line style="fill:none;stroke:#263238;stroke-width:0.5;stroke-miterlimit:10;" x1="63.216" y1="205.087" x2="51.983" y2="196.346"/>
			</g>
			<g>
				
					<line style="fill:none;stroke:#263238;stroke-width:2;stroke-miterlimit:10;" x1="68.999" y1="175.799" x2="60.686" y2="164.956"/>
				<path style="fill:#92E3A9;stroke:#263238;stroke-miterlimit:10;" d="M63.216,168.209c0,0,0.723-4.337-2.891-8.313
					c-2.175-2.392-14.241-9.018-15.902-4.698C42.616,159.896,54.542,170.739,63.216,168.209z"/>
				
					<line style="fill:none;stroke:#263238;stroke-width:0.5;stroke-miterlimit:10;" x1="63.216" y1="168.209" x2="51.983" y2="159.468"/>
			</g>
			<g>
				
					<line style="fill:none;stroke:#263238;stroke-width:2;stroke-miterlimit:10;" x1="68.999" y1="138.76" x2="60.686" y2="127.918"/>
				<path style="fill:#92E3A9;stroke:#263238;stroke-miterlimit:10;" d="M63.216,131.17c0,0,0.723-4.337-2.891-8.313
					c-2.175-2.392-14.241-9.018-15.902-4.698C42.616,122.858,54.542,133.7,63.216,131.17z"/>
				
					<line style="fill:none;stroke:#263238;stroke-width:0.5;stroke-miterlimit:10;" x1="63.216" y1="131.17" x2="51.983" y2="122.429"/>
			</g>
			<g>
				
					<line style="fill:none;stroke:#263238;stroke-width:2;stroke-miterlimit:10;" x1="68.816" y1="329.666" x2="77.128" y2="318.823"/>
				<path style="fill:#92E3A9;stroke:#263238;stroke-miterlimit:10;" d="M74.598,322.076c0,0-0.722-4.337,2.892-8.313
					c2.174-2.392,14.241-9.018,15.902-4.698C95.199,313.764,83.272,324.606,74.598,322.076z"/>
				
					<line style="fill:none;stroke:#263238;stroke-width:0.5;stroke-miterlimit:10;" x1="74.598" y1="322.076" x2="86.496" y2="312.865"/>
			</g>
			<g>
				
					<line style="fill:none;stroke:#263238;stroke-width:2;stroke-miterlimit:10;" x1="68.816" y1="254.622" x2="77.128" y2="243.78"/>
				<path style="fill:#92E3A9;stroke:#263238;stroke-miterlimit:10;" d="M74.598,247.032c0,0-0.722-4.337,2.892-8.313
					c2.174-2.392,14.241-9.018,15.902-4.698C95.199,238.72,83.272,249.562,74.598,247.032z"/>
				
					<line style="fill:none;stroke:#263238;stroke-width:0.5;stroke-miterlimit:10;" x1="74.598" y1="247.032" x2="86.496" y2="237.821"/>
			</g>
			<g>
				
					<line style="fill:none;stroke:#263238;stroke-width:2;stroke-miterlimit:10;" x1="68.816" y1="217.583" x2="77.128" y2="206.741"/>
				<path style="fill:#92E3A9;stroke:#263238;stroke-miterlimit:10;" d="M74.598,209.994c0,0-0.722-4.337,2.892-8.313
					c2.174-2.392,14.241-9.018,15.902-4.699C95.199,201.681,83.272,212.524,74.598,209.994z"/>
				
					<line style="fill:none;stroke:#263238;stroke-width:0.5;stroke-miterlimit:10;" x1="74.598" y1="209.994" x2="86.496" y2="200.782"/>
			</g>
			<g>
				
					<line style="fill:none;stroke:#263238;stroke-width:2;stroke-miterlimit:10;" x1="68.816" y1="168.628" x2="77.128" y2="157.785"/>
				<path style="fill:#92E3A9;stroke:#263238;stroke-miterlimit:10;" d="M74.598,161.038c0,0-0.722-4.337,2.892-8.312
					c2.174-2.392,14.241-9.018,15.902-4.699C95.199,152.726,83.272,163.568,74.598,161.038z"/>
				
					<line style="fill:none;stroke:#263238;stroke-width:0.5;stroke-miterlimit:10;" x1="74.598" y1="161.038" x2="86.496" y2="151.827"/>
			</g>
			<g>
				
					<line style="fill:none;stroke:#263238;stroke-width:2;stroke-miterlimit:10;" x1="68.816" y1="130.14" x2="77.128" y2="119.297"/>
				<path style="fill:#92E3A9;stroke:#263238;stroke-miterlimit:10;" d="M74.598,122.55c0,0-0.722-4.337,2.892-8.312
					c2.174-2.392,14.241-9.018,15.902-4.698C95.199,114.238,83.272,125.08,74.598,122.55z"/>
				
					<line style="fill:none;stroke:#263238;stroke-width:0.5;stroke-miterlimit:10;" x1="74.598" y1="122.55" x2="86.496" y2="113.339"/>
				<path style="fill:#92E3A9;stroke:#263238;stroke-miterlimit:10;" d="M68.318,105.48c0,0-0.723-4.337,2.891-8.313
					c2.174-2.392,14.241-9.018,15.902-4.698C88.918,97.167,76.992,108.01,68.318,105.48z"/>
				
					<line style="fill:none;stroke:#263238;stroke-width:0.5;stroke-miterlimit:10;" x1="68.318" y1="105.48" x2="80.215" y2="96.269"/>
				<path style="fill:#92E3A9;stroke:#263238;stroke-miterlimit:10;" d="M68.898,105.992c0,0-4.389,0.264-7.964-3.747
					c-2.151-2.413-7.475-15.108-3.005-16.307C62.792,84.633,72.324,97.631,68.898,105.992z"/>
				
					<line style="fill:none;stroke:#263238;stroke-width:0.5;stroke-miterlimit:10;" x1="68.898" y1="105.992" x2="60.985" y2="93.193"/>
			</g>
		</g>
		<polygon style="fill:#263238;stroke:#263238;stroke-miterlimit:10;" points="79.128,375.799 52.538,375.799 49.214,350.974 
			82.452,350.974 		"/>
	</g>
</g>
<g id="Table">
	<line style="fill:none;stroke:#263238;stroke-miterlimit:10;" x1="15.014" y1="375.774" x2="476.405" y2="375.774"/>
</g>
<g id="Meat">
	<g>
		<path style="fill:#263238;" d="M396.09,53.326c-34.441,0-62.459,28.019-62.459,62.459c0,7.506,1.332,14.706,3.77,21.378
			l-20.656,17.764l27.289-4.677c11.197,16.856,30.346,27.995,52.056,27.995c34.439,0,62.458-28.019,62.458-62.459
			S430.529,53.326,396.09,53.326z M396.09,168.543c-29.091,0-52.758-23.667-52.758-52.758c0-29.091,23.667-52.758,52.758-52.758
			c29.09,0,52.757,23.667,52.757,52.758C448.847,144.876,425.18,168.543,396.09,168.543z"/>
		<g>
			<path style="fill:#92E3A9;stroke:#263238;stroke-miterlimit:10;" d="M336.463,107.15c0,0,4.174,15.986,6.847,19.064
				c2.673,3.078,9.508,8.501,18.238,7.439c8.729-1.062,11.357-6.058,19.359-9.537c8.001-3.479,20.348-4.241,29.189-8.365
				c8.84-4.124,13.763-4.93,16.947-9.737c3.184-4.807,2.232-16.598,2.232-16.598L336.463,107.15z"/>
			<path style="fill:#FFFFFF;stroke:#263238;stroke-miterlimit:10;" d="M406.958,63.581c-1.802-0.844-16.263-8.85-31.392-7.348
				c-15.13,1.502-28.341,14.954-31.592,26.474c-3.251,11.521-10.267,20.432-6.133,27.818c4.135,7.386,11.832,17.976,19.587,18.619
				c7.756,0.643,17.774-11.236,21.36-12.011c3.586-0.775,18.942-6.852,28.496-7.591s26.709-8.199,21.621-22.554
				C423.816,72.634,412.117,65.999,406.958,63.581z"/>
			<path style="fill:#92E3A9;stroke:#263238;stroke-miterlimit:10;" d="M368.177,63.999c0,0-4.195,3.223-11.652,8.747
				c-7.456,5.524-12.113,8.281-10.845,13.67c1.267,5.39,0.145,6.868-2.288,10.38c-2.434,3.512-1.816,8.991-0.538,12.525
				c1.278,3.534,9.187,15.83,15.51,13.64c6.323-2.19,9.679-4.769,13.885-9.848c4.206-5.079,15.358-7.797,22.615-10.91
				c7.257-3.112,16.157-17.444,14.051-22.189c-2.106-4.745-4.585-9.307-11.981-13.991c-7.396-4.684-16.948-5.761-19.177-5.588
				C375.528,60.609,368.177,63.999,368.177,63.999z"/>
			<path style="fill:#92E3A9;stroke:#263238;stroke-miterlimit:10;" d="M413.843,78.282c0,0-1.005,12.986-5.861,18.154
				c-4.856,5.168,1.251,8.174,4.218,8.563c2.967,0.389,14.797-7.058,13.629-13.654c-1.168-6.596-5.952-13.491-8.814-16.014
				C414.154,72.808,413.843,78.282,413.843,78.282z"/>
			<path style="fill:#92E3A9;stroke:#263238;stroke-miterlimit:10;" d="M401.27,101.593c0,0-2.617,3.14-7.173,4.69
				c-4.556,1.551-13.386,3.819-10.702,5.041c2.684,1.222,18.025-3.791,20.632-5.075C406.633,104.965,402.848,101.51,401.27,101.593z
				"/>
			<g>
				<path style="fill:none;stroke:#263238;stroke-miterlimit:10;" d="M346.405,104.771c0,0,0.883-2.599,8.861-6.169
					c7.978-3.57,10.283-1.82,13.765-3.536c3.482-1.716,5.085-3.587,10.863-2.106c5.778,1.481,7.944,2.217,7.944,2.217"/>
				<path style="fill:none;stroke:#263238;stroke-miterlimit:10;" d="M351.706,89.178c0,0,2.044-3.171,5.085-3.587
					c3.041-0.416,5.362-1.56,6.809-1.551c1.447,0.008,4.063-2.002,4.063-2.002c4.782-1.274,4.782-1.274,4.782-1.274"/>
				<path style="fill:none;stroke:#263238;stroke-miterlimit:10;" d="M387.82,73.911c0,0-8.091-1.784-10.266-1.073
					c-2.174,0.711-6.081,0.832-6.081,0.832l-3.76-0.312l-5.362,1.56"/>
				<path style="fill:none;stroke:#263238;stroke-miterlimit:10;" d="M352.002,112.472c0,0,6.531-3.578,8.992-3.708
					c2.46-0.13,4.643-2.287,4.643-2.287"/>
			</g>
		</g>
		<g>
			<path style="fill:#92E3A9;stroke:#263238;stroke-miterlimit:10;" d="M456.254,114.471c-2.885-6.827-10.382-12.025-17.49-12.736
				c-14.234-1.423-19.453,12.336-20.877,15.658c-1.423,3.321-6.643,14.709-8.066,18.504c-1.423,3.796-7.117,10.438-8.54,12.811
				s-4.27,5.694-4.27,5.694l-6.168,5.219c0,0-2.77-1.205-4.595-0.292s-4.867,2.434-3.954,4.867s5.171,4.259,5.171,5.171
				s-0.913,2.738,0.608,4.563c1.521,1.825,4.563,2.413,6.084,0.588c1.521-1.825,1.521-3.325,1.825-4.846s2.129-6.084,2.434-6.997
				s13.689-10.951,13.689-10.951s10.951-4.563,16.122-6.388c11.913-4.205,23.564-6.659,28.389-20.074
				C457.97,121.498,457.658,117.792,456.254,114.471z"/>
			<path style="fill:#FFFFFF;stroke:#263238;stroke-miterlimit:10;" d="M386.248,159.329c-1.825,0.913-4.867,2.434-3.954,4.867
				c0.913,2.434,5.171,4.259,5.171,5.171s-0.913,2.738,0.608,4.563c1.521,1.825,4.563,2.413,6.084,0.588
				c1.521-1.825,1.521-3.326,1.825-4.847c0.304-1.521,2.129-6.084,2.434-6.997c0.162-0.486,4.036-3.562,7.621-6.331l0.592-0.666
				l-1.825-2.434c0,0,0,0-1.217-0.608s0,0-0.608-1.825c-0.608-1.825-5.968,3.591-5.968,3.591l-6.168,5.219
				C390.843,159.621,388.073,158.416,386.248,159.329z"/>
			<path style="fill:none;stroke:#263238;stroke-miterlimit:10;" d="M386.926,165.191c0,0,2.736,1.642,2.371,2.371
				c0,0-1.824,1.459-2.189,4.378"/>
			<path style="fill:none;stroke:#263238;stroke-miterlimit:10;" d="M433.365,108.623c0,0.846-0.811,1.532-1.811,1.532
				c-1,0-1.811-0.686-1.811-1.532s0.811-1.532,1.811-1.532C432.554,107.091,433.365,107.777,433.365,108.623z"/>
			<ellipse style="fill:none;stroke:#263238;stroke-miterlimit:10;" cx="439.773" cy="108.763" rx="1.114" ry="1.393"/>
			<path style="fill:none;stroke:#263238;stroke-miterlimit:10;" d="M435.344,117.759c-0.644,0.255-1.304,0.113-1.473-0.316
				s0.215-0.984,0.859-1.238c0.644-0.255,1.304-0.113,1.473,0.316C436.372,116.951,435.988,117.505,435.344,117.759z"/>
			<ellipse style="fill:none;stroke:#263238;stroke-miterlimit:10;" cx="421.245" cy="119.072" rx="1.254" ry="1.393"/>
			<ellipse style="fill:none;stroke:#263238;stroke-miterlimit:10;" cx="428.489" cy="123.53" rx="2.09" ry="1.393"/>
			<path style="fill:none;stroke:#263238;stroke-miterlimit:10;" d="M446.46,116.285c0,0.769-0.561,1.393-1.254,1.393
				c-0.693,0-1.254-0.624-1.254-1.393s0.561-1.393,1.254-1.393C445.899,114.892,446.46,115.516,446.46,116.285z"/>
			<ellipse style="fill:none;stroke:#263238;stroke-miterlimit:10;" cx="426.12" cy="114.335" rx="1.254" ry="1.393"/>
			<ellipse style="fill:none;stroke:#263238;stroke-miterlimit:10;" cx="439.634" cy="124.923" rx="1.254" ry="0.836"/>
			<path style="fill:none;stroke:#263238;stroke-miterlimit:10;" d="M419.712,129.102c0,0.462-0.374,0.836-0.836,0.836
				c-0.462,0-0.836-0.374-0.836-0.836c0-0.462,0.374-0.836,0.836-0.836C419.338,128.266,419.712,128.641,419.712,129.102z"/>
		</g>
		<g>
			
				<rect x="338.166" y="107.501" transform="matrix(0.7071 -0.7071 0.7071 0.7071 35.1722 313.5371)" style="fill:#263238;" width="115.846" height="13.614"/>
		</g>
	</g>
</g>
<g id="Character_1_">
	<g>
		<path style="fill:#C9C9C9;stroke:#263238;stroke-miterlimit:10;" d="M402.904,347.003c-4.092-10.415-10.415-44.637-15.995-56.168
			c-5.58-11.531-12.275-23.063-14.135-31.246c-1.86-8.183-9.299-30.874-24.922-40.917c-15.623-10.043-61.004-33.85-66.583-36.454
			c-5.58-2.604-64.724-2.232-64.724-2.232s-27.898,12.647-48.729,21.575c-20.831,8.927-41.661,26.41-48.357,46.125
			c-6.696,19.715-5.208,37.197-5.208,37.197s-10.043,19.715-11.159,36.453c-1.116,16.739-12.647,42.033,1.116,49.845
			c13.763,7.812,299.812,0,299.812,0S406.995,357.418,402.904,347.003z M311.398,364.486l11.159-63.236
			c2.976,10.043,20.831,40.545,20.831,40.545l1.86,18.971L311.398,364.486z"/>
		<g>
			<path style="fill:#92E3A9;stroke:#263238;stroke-miterlimit:10;" d="M309.888,373.295l1.51-8.809l11.159-63.236
				c1.092,3.685,4.188,10.124,7.669,16.8c8.211-6.963,33.173-25.299,60.27-17.367c-1.21-3.994-2.415-7.426-3.587-9.848
				c-5.58-11.531-12.275-23.063-14.135-31.246c-1.86-8.183-9.299-30.874-24.922-40.917c-15.623-10.043-61.004-33.85-66.583-36.454
				c-5.58-2.604-64.724-2.232-64.724-2.232s-27.898,12.647-48.729,21.575c-20.831,8.927-41.661,26.41-48.357,46.125
				c-6.696,19.715-5.208,37.197-5.208,37.197s-5.549,10.898-8.856,23.367c6.252-1.051,15.478-0.383,28.571,5.275
				c30.13,13.019,31.246,15.995,31.246,15.995l1.681,45.057C208.357,374.895,263.317,374.161,309.888,373.295z"/>
			<g>
				<path style="fill:none;stroke:#263238;stroke-miterlimit:10;" d="M151.763,266.434c4.601,15.637,12.49,40.666,18.051,48.775"/>
				<path style="fill:none;stroke:#263238;stroke-miterlimit:10;" d="M148.028,253.308c0,0,0.648,2.394,1.748,6.26"/>
				<path style="fill:none;stroke:#263238;stroke-miterlimit:10;" d="M141.803,273.365c0,0,10.029,10.72,15.908,13.141"/>
				<path style="fill:none;stroke:#263238;stroke-miterlimit:10;" d="M322.557,301.25c0,0,5.482-33.9,5.482-39.943"/>
				<path style="fill:none;stroke:#263238;stroke-miterlimit:10;" d="M252.631,263.583c-1.724,2.144-3.509,4.259-5.354,6.324"/>
				<path style="fill:none;stroke:#263238;stroke-miterlimit:10;" d="M284.28,210.081c0,0-10.51,25.749-28.552,49.535"/>
				<path style="fill:none;stroke:#263238;stroke-miterlimit:10;" d="M247.01,239.253c7.756,0.145,14.28-1.45,17.18-2.32"/>
				<path style="fill:none;stroke:#263238;stroke-miterlimit:10;" d="M203.88,197.5c0,0,2.9,21.456,18.557,33.634
					c5.507,4.283,11.587,6.486,17.409,7.466"/>
				<path style="fill:none;stroke:#263238;stroke-miterlimit:10;" d="M285.646,189.381c0,0,2.9,4.639,1.74,14.498"/>
				<path style="fill:none;stroke:#263238;stroke-miterlimit:10;" d="M250.653,328.818c-2.443,2.26-4.846,4.313-7.18,6.102"/>
				<path style="fill:none;stroke:#263238;stroke-miterlimit:10;" d="M310.216,252.616c0,0-28.699,45.284-54.8,71.594"/>
				<path style="fill:none;stroke:#263238;stroke-miterlimit:10;" d="M291.888,274.057c0,0-31.123,37.002-61.555,49.797"/>
				<path style="fill:none;stroke:#263238;stroke-miterlimit:10;" d="M326.469,277.515c0,0,15.216-15.562,25.245-19.712"/>
				<path style="fill:none;stroke:#263238;stroke-miterlimit:10;" d="M340.993,259.187c0,0-7.954,5.187-13.487,13.833"/>
			</g>
		</g>
		<path style="fill:#C9C9C9;stroke:#263238;stroke-miterlimit:10;" d="M357.682,334.982c0,0-5.18,0-18.994,4.893
			c-13.814,4.892-33.96,11.224-61.876,18.419c-27.916,7.195-58.998,10.648-63.315,11.224c-4.317,0.576-21.297-3.741-26.477-5.468
			c-5.18-1.727-12.951-4.029-14.39-2.59c-1.439,1.439-21.297,20.721-24.175,25.038c-2.878,4.317-3.741,6.907-1.151,7.77
			c2.59,0.863,20.146-1.151,20.146-1.151s19.858,5.756,34.535,6.331c14.678,0.576,30.218-3.166,30.218-3.166
			s65.617-2.302,90.943-2.302c25.326,0,63.89-9.785,69.07-9.785c5.18,0,9.209-2.015,10.361-6.044
			c1.151-4.029,5.934-11.889,0.326-31.148c-2.138-7.342-4.065-12.851-4.065-12.851"/>
		<path style="fill:#C9C9C9;stroke:#263238;stroke-miterlimit:10;" d="M212.658,172.624c0,0-1.68,21.838,2.688,35.612
			c4.367,13.774,16.126,22.845,35.276,22.845c19.15,0,28.893-18.142,29.9-26.877c1.008-8.735,0.336-27.885,0.336-27.885
			L212.658,172.624z"/>
		<g>
			<path style="fill:#C9C9C9;stroke:#263238;stroke-miterlimit:10;" d="M200.625,121.289c0,0-5.573-3.267-8.84,3.267
				c-3.267,6.534,4.036,19.411,6.534,22.486c2.498,3.075,5.958,6.726,5.958,6.726L200.625,121.289z"/>
			<path style="fill:#C9C9C9;stroke:#263238;stroke-miterlimit:10;" d="M289.357,121.289c0,0,5.573-3.267,8.84,3.267
				c3.267,6.534-4.036,19.411-6.534,22.486c-2.498,3.075-5.958,6.726-5.958,6.726L289.357,121.289z"/>
			<path style="fill:#C9C9C9;stroke:#263238;stroke-miterlimit:10;" d="M196.729,84.809c0,0,3.876,46.808,6.559,62.908
				c2.683,16.1,3.28,25.044,7.454,34.584c4.174,9.541,17.888,23.553,23.851,26.833c5.963,3.279,23.553,2.087,27.727-1.491
				c4.174-3.578,17.888-16.1,21.168-27.727c3.28-11.627,7.155-64.1,7.155-71.852c0-7.752,1.789-28.622-4.174-36.969
				c-5.963-8.348-32.199-18.783-48.299-16.696c-16.1,2.087-35.18,9.839-38.46,14.609C196.431,73.778,196.729,84.809,196.729,84.809z
				"/>
			<path style="fill:#263238;stroke:#263238;stroke-miterlimit:10;" d="M238.171,54.399c-16.1,2.087-35.181,9.839-38.46,14.609
				c-3.279,4.77-2.981,15.801-2.981,15.801s2.27,27.417,4.539,47.502c0.89,0.309,1.983,0.259,2.319-1.588
				c0.596-3.28-0.596-5.367,2.087-7.453c2.683-2.087,6.261-3.876,6.559-9.541c0.298-5.665-3.279-19.081,0.596-20.273
				c3.876-1.193,17.59,6.261,30.112,7.752c12.522,1.491,33.094-10.733,36.373-4.77s0.894,18.485,2.385,22.659
				c1.491,4.174,4.472,8.646,4.472,8.646s0,7.453,2.087,7.155c0.234-0.033,0.467-0.087,0.699-0.148
				c1.017-12.523,1.687-23.464,1.687-26.684c0-7.752,1.789-28.622-4.174-36.969C280.507,62.747,254.27,52.312,238.171,54.399z"/>
			<path style="fill:#263238;stroke:#263238;stroke-miterlimit:10;" d="M245.102,179.369c0,0-7.072-1.057-9.763-0.865
				c-2.691,0.192-7.894-3.188-10.119-0.627c-1.363,1.569-1.724,4.334-1.532,5.487c0.192,1.153,0.192,2.883,0.192,2.883
				s1.34-7.025,3.262-6.832c1.922,0.192,9.614,4.911,15.188,5.679c5.573,0.769,12.108,0,15.759-0.769
				c3.652-0.769,8.756-5.225,10.102-4.265c1.345,0.961,1.429,11.375,1.429,8.877c0-2.498,1.069-10.607-0.276-11.952
				c-1.345-1.345-17.438,2.277-18.976,2.277C248.83,179.263,245.102,179.369,245.102,179.369z"/>
			<path style="fill:none;stroke:#263238;stroke-miterlimit:10;" d="M241.176,192.974c0,0,5.766,1.345,11.531-0.192"/>
			<path style="fill:#263238;stroke:#263238;stroke-miterlimit:10;" d="M289.233,131.281c-0.003,0.003-0.009-0.004-0.011,0.003
				c-0.192,0.769-1.345,8.456-2.498,15.183c-1.153,6.726-4.228,16.143-8.072,23.446c-3.844,7.303-4.805,17.104-6.534,18.065
				c-1.73,0.961-2.498,0.961-2.498,0.961s-3.267,5.189-3.844,6.534c-0.577,1.345-5.189,6.534-18.45,7.111
				c-13.261,0.576-18.065-6.727-19.603-9.033c-1.538-2.306-3.844-7.303-3.844-7.303s-1.538,0.961-3.075-0.769
				c-1.537-1.73-5.381-12.876-10.57-22.293c-5.189-9.417-8.072-29.404-8.072-29.404l-0.365,3.082
				c0.515,4.28,1.021,8.037,1.49,10.853c2.683,16.1,3.28,25.044,7.454,34.584c4.174,9.541,17.888,23.553,23.851,26.833
				c5.963,3.279,23.553,2.087,27.727-1.491c4.174-3.578,17.888-16.1,21.168-27.727C285.532,172.667,287.809,149.546,289.233,131.281
				z"/>
			<path style="fill:#C9C9C9;stroke:#263238;stroke-miterlimit:10;" d="M235.987,169.528c0,0-2.114,4.036,0.192,6.342
				s5.381,3.844,9.033,4.612c3.651,0.769,8.456-2.306,9.417-2.691c0.961-0.384,3.267-2.498,3.267-4.228
				c0-1.73-0.769-3.844-0.769-3.844"/>
			<path style="fill:#263238;stroke:#263238;stroke-miterlimit:10;" d="M218.306,147.042c0,0,1.538,3.075,8.648,4.42
				c7.111,1.345,9.417-1.153,9.417-1.153s-4.612,3.459-9.033,3.459C222.919,153.769,219.844,151.078,218.306,147.042z"/>
			<path style="fill:#263238;stroke:#263238;stroke-miterlimit:10;" d="M274.616,147.042c0,0-1.537,3.075-8.648,4.42
				c-7.111,1.345-9.417-1.153-9.417-1.153s4.612,3.459,9.033,3.459C270.004,153.769,273.079,151.078,274.616,147.042z"/>
			<path style="fill:#263238;stroke:#263238;stroke-miterlimit:10;" d="M236.202,139.237c0,0-0.495-0.909-7.019-2.072
				c-6.524-1.163-17.458,1.292-16.75,2.37c0.708,1.077,13.495-0.436,15.539,0.483c2.044,0.919,10.567,2.62,10.487,0.307
				C238.38,138.011,236.202,139.237,236.202,139.237z"/>
			<path style="fill:#263238;stroke:#263238;stroke-miterlimit:10;" d="M256.333,139.237c0,0,0.495-0.909,7.019-2.072
				c6.524-1.163,17.458,1.292,16.75,2.37c-0.708,1.077-13.495-0.436-15.539,0.483c-2.044,0.919-10.567,2.62-10.487,0.307
				C254.155,138.011,256.333,139.237,256.333,139.237z"/>
		</g>
		<g>
			<path style="fill:#C9C9C9;stroke:#263238;stroke-miterlimit:10;" d="M147.612,334.012c0,0-8.174,4.087-11.059,5.529
				c-2.885,1.443-11.059-1.202-21.397,2.164c-10.338,3.366-16.829,12.261-17.79,18.752c-0.962,6.491-1.202,12.742,2.885,19.714
				c4.087,6.972,17.55,15.867,21.156,18.271c3.606,2.404,6.972,5.53,11.78,3.847c4.808-1.683,16.588-8.655,23.801-16.588
				c7.212-7.934,23.56-19.954,25.964-25.964c2.404-6.01-8.414-20.916-15.386-25.965
				C160.594,328.723,153.382,331.367,147.612,334.012z"/>
			<path style="fill:#C9C9C9;stroke:#263238;stroke-miterlimit:10;" d="M163.96,364.303c0,0-10.818-9.376-13.944-12.982
				c-3.125-3.606-2.164-7.934-2.164-7.934s-1.923-1.202-4.087-6.01s1.202-10.338,1.443-11.059c0.24-0.721-1.443-1.683-3.125-2.885
				c-1.683-1.202-1.442-5.289,0.24-8.895c1.683-3.606,9.857-9.616,9.857-9.616s15.867,0.481,20.916-0.962
				c5.049-1.442,9.376-3.125,10.818-0.721c1.443,2.404,2.645,8.414,4.087,13.703c1.442,5.289,4.087,20.916,0.721,30.773
				c-3.366,9.857-7.212,16.588-11.059,18.512c-3.847,1.923-3.847,1.923-3.847,1.923"/>
			<g>
				<path style="fill:#C9C9C9;stroke:#263238;stroke-miterlimit:10;" d="M155.305,352.523c0,0,13.463,0.721,21.878-0.24
					c8.414-0.962,17.31-8.174,18.512-11.059c1.202-2.885-2.645-2.404-2.645-2.404s-19.233,2.404-21.156,2.404
					c-1.923,0-18.271-1.683-18.271-1.683"/>
				<path style="fill:#C9C9C9;stroke:#263238;stroke-miterlimit:10;" d="M148.814,340.743c0,0,10.818,2.404,25.003,2.404
					c14.184,0,21.156-2.404,23.56-3.606c2.404-1.202,2.885-2.644-0.24-4.327c-3.125-1.683-24.041-4.327-27.166-4.568
					c-3.125-0.24-17.55-5.049-17.55-5.049"/>
				<path style="fill:#C9C9C9;stroke:#263238;stroke-miterlimit:10;" d="M146.891,325.357c0,0,14.184,6.972,20.675,8.414
					c6.491,1.443,25.724,1.202,29.571,1.443c3.847,0.24,4.568-0.962,2.164-5.049s-7.212-5.049-10.578-5.53
					c-3.366-0.481-21.156-4.327-21.156-4.327s-13.463-6.732-14.184-6.972"/>
			</g>
			<path style="fill:#FFFFFF;stroke:#263238;stroke-miterlimit:10;" d="M234.193,370.847c-0.165-0.248-0.097-0.583,0.151-0.747
				c0.247-0.165,0.581-0.099,0.747,0.149l19.521,29.347l0.771-0.474l-18.485-29.307c-0.159-0.252-0.084-0.584,0.169-0.743
				c0.251-0.159,0.585-0.084,0.743,0.168l18.492,29.317l0.547-0.337l-17.852-29.457c-0.154-0.254-0.073-0.585,0.182-0.74
				c0.256-0.153,0.586-0.073,0.741,0.182l17.848,29.45l0.675-0.416c0,0-19.954-35.821-23.32-37.745
				c-3.366-1.923-15.44-0.672-20.008-2.835c-4.568-2.164-41.778-49.815-41.778-49.815l-2.645,2.404c0,0,37.504,46.159,41.591,49.765
				s9.376,2.645,12.261,4.087c2.885,1.443,27.647,37.985,27.647,37.985l1.503-0.925L234.193,370.847z"/>
			<path style="fill:#C9C9C9;stroke:#263238;stroke-miterlimit:10;" d="M164.538,292.434c-2.173-2.108-5.42-2.833-8.194-1.62
				c-1.846,0.808-3.731,2.231-4.885,4.731c-2.885,6.251-0.24,10.097,1.202,11.059c1.443,0.962,9.617,7.453,15.627,11.299
				c6.01,3.847,11.54,8.895,15.386,7.934c3.847-0.962,3.125-6.972,1.443-10.338c-1.683-3.366-7.453-10.338-15.386-18.031
				L164.538,292.434z"/>
			<path style="fill:#C9C9C9;stroke:#263238;stroke-miterlimit:10;" d="M180.548,284.006c0,0-10.338,0.481-11.059,3.366
				c-0.721,2.885,4.327,15.146,7.934,19.233c3.606,4.087,11.78,3.366,12.982,0.962c1.202-2.404-2.885-13.704-4.568-18.752
				C184.154,283.766,182.231,283.766,180.548,284.006z"/>
		</g>
	</g>
</g>
<g id="Dish">
	<g>
		<ellipse style="fill:#263238;stroke:#263238;stroke-miterlimit:10;" cx="240.922" cy="440.33" rx="107.572" ry="45.711"/>
		<ellipse style="fill:#FFFFFF;stroke:#263238;stroke-miterlimit:10;" cx="240.922" cy="436.641" rx="110.22" ry="45.711"/>
		<ellipse style="fill:#FFFFFF;stroke:#263238;stroke-miterlimit:10;" cx="240.922" cy="432.952" rx="110.22" ry="45.711"/>
		<g>
			<path style="fill:#FFFFFF;stroke:#263238;stroke-miterlimit:10;" d="M213.089,394.701c0,0,2.864-2.864,4.455-3.182
				c1.591-0.318,3.182,0.955,4.137,0.318c0.955-0.637,0.318-1.909,2.546-2.228c2.228-0.318,2.379-0.48,4.531,0.237
				c2.152,0.717,3.425-1.829,5.653-1.192c2.228,0.637,3.819,2.546,3.819,2.546s1.273-1.909,2.864-1.273
				c1.591,0.636,1.591,0.636,1.591,0.636s0.636-1.909,5.41-1.909c4.773,0,7.001,1.591,7.001,1.591c4.774,0,7.284,2.775,7.284,2.775
				c0.763-0.47,1.668-0.85,4.364-0.445c1.785,0.268,2.354,1.489,3.309,1.489c0.955,0,3.501,0.955,3.501,0.955l1.273,2.228
				c0,0,1.591-1.909,3.501-0.637c1.909,1.273,1.909,1.273,1.909,1.273s0.318-0.955,2.546,0.637c2.228,1.591,2.864,2.228,2.864,3.501
				c0,1.273,2.481,4.986,2.481,4.986l0.076,2.559c0,0-10.194,4.23-9.558,5.821c0.637,1.591-3.874,3.183-3.369,5.092
				c0.505,1.909-4.203,3.991-4.203,3.991l-9.378,3.617l-8.91,1.951l-4.054,1.261l-12.41-0.615l-2.866-2.886l-4.03-1.239
				l-4.563-2.579l-2.546-2.228l-3.182-5.728l-1.273-3.819C217.862,412.204,210.861,397.246,213.089,394.701z"/>
			<path style="fill:none;stroke:#263238;stroke-miterlimit:10;" d="M244.594,412.522c0,0,0-2.864,1.91-3.182
				c1.909-0.318,3.501,0.636,3.501,0.636s0.637-2.228,2.228-3.182c1.591-0.955,3.819-0.955,3.819-0.955s-0.318-2.864,1.273-3.501
				c1.591-0.637,3.182-0.955,3.182-0.955s0.955-3.182,1.909-3.182c0.955,0,0.955,0,0.955,0s1.591-1.591,3.501-0.955
				c1.909,0.637,2.601,1.141,3.501,1.591c2.546,1.273,2.546,1.273,2.546,1.273s1.91-0.955,3.501,0
				c1.591,0.955,1.591,0.955,1.591,0.955s2.546-1.273,3.819-0.318"/>
			<path style="fill:none;stroke:#263238;stroke-miterlimit:10;" d="M222.318,404.248c0,0,2.546-4.137,4.137-3.501
				c1.591,0.637,0,0.955,1.591,0.637c1.591-0.318,2.228-3.501,3.819-3.182c1.591,0.318,3.182,1.273,3.182,1.273
				s0.637-2.864,2.546-1.909c1.909,0.955,1.909,0.955,1.909,0.955s1.591-1.273,3.501,0c1.909,1.273,1.909,1.273,1.909,1.273
				s-2.546-1.909,0,0s2.546,1.909,2.546,1.909l0,0c0,0,1.273-0.318,2.864,0.955c1.591,1.273,1.91,4.137,1.91,4.137"/>
		</g>
		<g>
			<path style="fill:#FFFFFF;stroke:#263238;stroke-miterlimit:10;" d="M203.043,382.715c0,0,14.571,14.571,19.87,25.831
				c5.299,11.259,0.662,24.506-6.623,29.142c-7.286,4.636-19.87,7.286-32.454-6.623c-12.584-13.909-5.363-26.91,1.293-38.954
				C191.783,380.065,195.095,376.754,203.043,382.715z"/>
			<path style="fill:#878787;stroke:#263238;stroke-miterlimit:10;" d="M197.082,402.584c0,0,9.935-2.649,15.896,5.298
				c5.961,7.948,0,14.571-6.623,15.896c-6.623,1.325-11.26-2.649-13.909-7.285C189.797,411.857,190.459,403.247,197.082,402.584z"/>
			<path style="fill:#92E3A9;stroke:#263238;stroke-miterlimit:10;" d="M194.01,380.461l-0.433,0.707
				c0,0-13.691,19.167-11.865,31.945c1.826,12.778,7.302,21.449,17.798,25.556c2.757,1.079,5.221,1.9,7.37,2.533
				c-6.717,0.936-14.88-1.114-23.044-10.138c-12.584-13.909-5.363-26.91,1.293-38.954
				C188.625,385.781,191.202,381.889,194.01,380.461z"/>
		</g>
		<g>
			<g>
				<path style="fill:#FFFFFF;stroke:#263238;stroke-miterlimit:10;" d="M328.725,421.296c0,0-2.942,0.749-8.245,3.408
					c-5.304,2.659-11.539,9.951-6.539,14.732c5,4.781,19.243-6.265,20.384-9.961C335.465,425.78,336.32,420.09,328.725,421.296z"/>
				<path style="fill:#FFFFFF;stroke:#263238;stroke-miterlimit:10;" d="M335.037,424.77c-0.046-0.551-0.168-1.069-0.376-1.536
					l-1.235-1.107c0,0-18.548,11.293-16.356,12.685C319.092,436.095,331.361,427.411,335.037,424.77z"/>
			</g>
			<g>
				<path style="fill:#FFFFFF;stroke:#263238;stroke-miterlimit:10;" d="M283.503,408.734c0,0-2.941,0.749-8.245,3.408
					c-5.304,2.659-11.539,9.951-6.539,14.732c5,4.781,19.243-6.265,20.384-9.961C290.243,413.218,291.098,407.529,283.503,408.734z"
					/>
				<path style="fill:#FFFFFF;stroke:#263238;stroke-miterlimit:10;" d="M289.814,412.208c-0.046-0.551-0.167-1.069-0.376-1.536
					l-1.235-1.107c0,0-18.548,11.293-16.356,12.685C273.87,423.533,286.139,414.849,289.814,412.208z"/>
			</g>
			<g>
				<path style="fill:#FFFFFF;stroke:#263238;stroke-miterlimit:10;" d="M331.326,423.578c0,0-0.335-2.781-2.465-7.934
					s-9.491-11.652-15.983-7.567c-6.492,4.085,3.782,18.337,7.883,19.777C324.862,429.292,331.34,430.681,331.326,423.578z"/>
				<path style="fill:#FFFFFF;stroke:#263238;stroke-miterlimit:10;" d="M326.118,429.006c0.652,0.016,1.277-0.04,1.861-0.182
					l1.517-1.017c0,0-9.773-18.232-11.798-16.366C315.831,413.162,323.711,425.35,326.118,429.006z"/>
			</g>
			<g>
				<path style="fill:#FFFFFF;stroke:#263238;stroke-miterlimit:10;" d="M294.923,425.615c0,0-0.335-2.781-2.465-7.934
					c-2.13-5.153-9.491-11.653-15.983-7.567c-6.492,4.085,3.782,18.337,7.883,19.777
					C288.459,431.33,294.937,432.718,294.923,425.615z"/>
				<path style="fill:#FFFFFF;stroke:#263238;stroke-miterlimit:10;" d="M289.715,431.043c0.652,0.016,1.277-0.04,1.861-0.182
					l1.517-1.017c0,0-9.773-18.232-11.798-16.366C279.427,415.199,287.308,427.388,289.715,431.043z"/>
			</g>
			<g>
				<path style="fill:#FFFFFF;stroke:#263238;stroke-miterlimit:10;" d="M309.902,401.144c0,0-2.788-1.202-8.612-2.331
					c-5.825-1.129-15.214,0.843-14.169,7.682c1.044,6.839,19.069,6.778,22.227,4.546
					C312.506,408.809,316.654,404.823,309.902,401.144z"/>
				<path style="fill:#FFFFFF;stroke:#263238;stroke-miterlimit:10;" d="M312.782,407.747c0.3-0.465,0.52-0.949,0.64-1.446
					l-0.303-1.63c0,0-21.586-2.37-20.698,0.07C293.24,406.991,308.259,407.597,312.782,407.747z"/>
			</g>
			<g>
				<path style="fill:#FFFFFF;stroke:#263238;stroke-miterlimit:10;" d="M316.602,424.174c0,0-2.788-1.202-8.612-2.331
					c-5.825-1.129-15.214,0.843-14.169,7.681c1.044,6.839,19.069,6.778,22.227,4.546
					C319.205,431.839,323.354,427.853,316.602,424.174z"/>
				<path style="fill:#FFFFFF;stroke:#263238;stroke-miterlimit:10;" d="M319.482,430.777c0.3-0.465,0.52-0.949,0.64-1.447
					l-0.303-1.63c0,0-21.586-2.37-20.698,0.07C299.939,430.021,314.958,430.627,319.482,430.777z"/>
			</g>
			<g>
				<path style="fill:#FFFFFF;stroke:#263238;stroke-miterlimit:10;" d="M327.488,404.075c0,0-2.788-1.202-8.612-2.331
					c-5.825-1.129-15.214,0.843-14.169,7.681c1.044,6.839,19.069,6.778,22.227,4.546
					C330.092,411.74,334.241,407.754,327.488,404.075z"/>
				<path style="fill:#FFFFFF;stroke:#263238;stroke-miterlimit:10;" d="M330.369,410.678c0.3-0.465,0.52-0.949,0.64-1.446
					l-0.303-1.63c0,0-21.586-2.37-20.698,0.07C310.826,409.922,325.845,410.529,330.369,410.678z"/>
			</g>
			<g>
				<path style="fill:#FFFFFF;stroke:#263238;stroke-miterlimit:10;" d="M307.691,406.173c0,0-3.587,0.106-10.391,1.807
					c-6.804,1.701-15.877,8.506-11.341,15.31c4.536,6.805,23.816-2.268,26.084-6.238
					C314.311,413.084,316.763,406.74,307.691,406.173z"/>
				<path style="fill:#FFFFFF;stroke:#263238;stroke-miterlimit:10;" d="M314.077,411.808c0.089-0.648,0.082-1.276-0.038-1.869
					l-1.139-1.595c0,0-24.31,8.248-22.139,10.418C292.763,420.764,309.155,413.908,314.077,411.808z"/>
			</g>
			<g>
				<path style="fill:#FFFFFF;stroke:#263238;stroke-miterlimit:10;" d="M317.829,425.472c0,0-0.399-3.566-2.652-10.208
					c-2.252-6.642-9.777-15.128-16.187-10.049c-6.41,5.078,4.21,23.55,8.352,25.486C311.483,432.635,318.006,434.56,317.829,425.472
					z"/>
				<path style="fill:#FFFFFF;stroke:#263238;stroke-miterlimit:10;" d="M312.736,432.297c0.653,0.036,1.279-0.022,1.86-0.19
					l1.496-1.266c0,0-10.21-23.553-12.196-21.212C302.065,411.788,310.24,427.565,312.736,432.297z"/>
			</g>
			<g>
				<path style="fill:#FFFFFF;stroke:#263238;stroke-miterlimit:10;" d="M288.128,407.006c0,0-2.788-1.201-8.612-2.331
					c-5.825-1.129-15.214,0.843-14.169,7.681c1.044,6.839,19.069,6.778,22.227,4.546
					C290.732,414.671,294.881,410.685,288.128,407.006z"/>
				<path style="fill:#FFFFFF;stroke:#263238;stroke-miterlimit:10;" d="M291.009,413.61c0.3-0.465,0.52-0.949,0.64-1.447
					l-0.303-1.63c0,0-21.586-2.37-20.698,0.07C271.466,412.853,286.485,413.46,291.009,413.61z"/>
			</g>
		</g>
		<g>
			<g>
				<path style="fill:#92E3A9;stroke:#263238;stroke-miterlimit:10;" d="M218.989,431.031c0,0,6.461,10.437,12.922,10.934
					c6.461,0.497,5.964,1.491,9.94,0.497c3.976-0.994,6.461-0.994,9.443-2.982c2.982-1.988,2.982-1.988,2.982-1.988
					s-8.946-0.497-16.401-2.982C230.42,432.025,218.989,431.031,218.989,431.031z"/>
				<path style="fill:#92E3A9;stroke:#263238;stroke-miterlimit:10;" d="M250.797,446.935c0,0,11.431-8.449,17.395-9.94
					s11.928-1.491,11.928-1.491s-4.473,7.455-12.922,9.94C258.749,447.929,250.797,446.935,250.797,446.935z"/>
				<path style="fill:#92E3A9;stroke:#263238;stroke-miterlimit:10;" d="M241.851,431.528c0,0-0.994-2.485-4.473-5.964
					c-3.479-3.479-8.946-10.934-8.946-10.934s-1.988,8.946,0.994,11.928C232.408,429.54,241.851,431.528,241.851,431.528z"/>
				<path style="fill:#92E3A9;stroke:#263238;stroke-miterlimit:10;" d="M241.851,431.528c0,0,3.479-4.97,7.952-5.964
					c4.473-0.994,9.94-1.491,9.94-1.491s-2.982,2.982-6.958,4.97C248.809,431.031,241.851,431.528,241.851,431.528z"/>
				<path style="fill:#92E3A9;stroke:#263238;stroke-miterlimit:10;" d="M239.366,449.42c0,0-5.964,0-8.946,0.497
					c-2.982,0.497-13.916,2.982-13.916,2.982s7.455,3.479,13.916,2.485C236.881,454.39,239.366,449.42,239.366,449.42z"/>
				<path style="fill:#92E3A9;stroke:#263238;stroke-miterlimit:10;" d="M273.66,430.534c0,0-9.443-2.485-13.916-0.497
					c-4.473,1.988-10.437,5.467-10.437,5.467S268.69,435.007,273.66,430.534z"/>
				<path style="fill:#92E3A9;stroke:#263238;stroke-miterlimit:10;" d="M245.33,445.444c0,0-4.473-2.485-8.946-2.982
					c-4.473-0.497-9.443,0.497-9.443,0.497s4.473,1.491,8.449,3.976C239.366,449.42,245.33,445.444,245.33,445.444z"/>
				<path style="fill:#92E3A9;stroke:#263238;stroke-miterlimit:10;" d="M257.883,426.341c0,0,2.357-2.269,6.83-5.251
					c4.473-2.982,12.425-3.479,12.425-3.479s-2.485,6.461-4.473,8.946c-1.988,2.485-8.449,3.976-11.431,4.473
					c-2.982,0.497-0.994,0.994,2.982,3.479c3.976,2.485,10.437,9.443,10.437,9.443s-6.958,0.497-11.431-0.994
					c-4.473-1.491-7.952-1.988-8.946-5.964c-0.994-3.976-1.491-5.467-1.491-6.958S257.883,426.341,257.883,426.341z"/>
				<path style="fill:#92E3A9;stroke:#263238;stroke-miterlimit:10;" d="M254.276,436.995c0,0-8.449,0-9.94,2.982
					c-1.491,2.982-2.982,9.94-2.982,9.94s4.97-2.485,8.449-4.97C253.282,442.462,254.276,436.995,254.276,436.995z"/>
				<path style="fill:#92E3A9;stroke:#263238;stroke-miterlimit:10;" d="M257.755,439.977c0,0-2.485,7.952,0,12.425
					c2.485,4.473,5.964,7.952,5.964,7.952l4.97-0.497c0,0-3.479-9.94-4.473-13.419C263.223,442.959,257.755,439.977,257.755,439.977
					z"/>
				<path style="fill:#92E3A9;stroke:#263238;stroke-miterlimit:10;" d="M263.223,442.959c0,0,6.461,10.437,12.922,10.934
					c6.461,0.497,5.964,1.491,9.94,0.497c3.976-0.994,6.461-0.994,9.443-2.982c2.982-1.988,2.982-1.988,2.982-1.988
					s-8.946-0.497-16.401-2.982C274.654,443.953,263.223,442.959,263.223,442.959z"/>
				<path style="fill:#92E3A9;stroke:#263238;stroke-miterlimit:10;" d="M295.031,458.863c0,0,11.431-8.449,17.395-9.94
					c5.964-1.491,11.928-1.491,11.928-1.491s-4.473,7.455-12.922,9.94C302.983,459.857,295.031,458.863,295.031,458.863z"/>
				<path style="fill:#92E3A9;stroke:#263238;stroke-miterlimit:10;" d="M286.085,443.456c0,0-0.994-2.485-4.473-5.964
					c-3.479-3.479-8.946-10.934-8.946-10.934s-1.988,8.946,0.994,11.928C276.642,441.468,286.085,443.456,286.085,443.456z"/>
				<path style="fill:#92E3A9;stroke:#263238;stroke-miterlimit:10;" d="M286.085,443.456c0,0,3.479-4.97,7.952-5.964
					c4.473-0.994,9.94-1.491,9.94-1.491s-2.982,2.982-6.958,4.97C293.043,442.959,286.085,443.456,286.085,443.456z"/>
				<path style="fill:#92E3A9;stroke:#263238;stroke-miterlimit:10;" d="M283.6,461.348c0,0-5.964,0-8.946,0.497
					c-2.982,0.497-13.916,2.982-13.916,2.982s7.455,3.479,13.916,2.485C281.115,466.319,283.6,461.348,283.6,461.348z"/>
				<path style="fill:#92E3A9;stroke:#263238;stroke-miterlimit:10;" d="M259.743,458.863c0,0-5.964-4.97-9.94-5.467
					c-3.976-0.497-10.437-0.497-12.922-1.491c-2.485-0.994-4.97-1.491-4.97-1.491s5.467,6.461,8.449,7.455
					C243.342,458.863,259.743,458.863,259.743,458.863z"/>
				<path style="fill:#92E3A9;stroke:#263238;stroke-miterlimit:10;" d="M317.893,442.462c0,0-9.443-2.485-13.916-0.497
					c-4.473,1.988-10.437,5.467-10.437,5.467S312.923,446.935,317.893,442.462z"/>
				<path style="fill:#92E3A9;stroke:#263238;stroke-miterlimit:10;" d="M262.228,413.636c0,0-8.449,4.473-8.946,10.437
					c-0.497,5.964-4.473,9.94-3.479,11.431c0.994,1.491,14.413-10.437,14.91-14.413c0.497-3.976,5.964-10.934,5.964-10.934
					L262.228,413.636z"/>
				<path style="fill:#92E3A9;stroke:#263238;stroke-miterlimit:10;" d="M260.315,426.872c0,0,6.461,10.437,12.922,10.934
					c6.461,0.497,5.964,1.491,9.94,0.497c3.976-0.994,6.461-0.994,9.443-2.982c2.982-1.988,2.982-1.988,2.982-1.988
					s-8.946-0.497-16.401-2.982C271.746,427.866,260.315,426.872,260.315,426.872z"/>
				<path style="fill:#92E3A9;stroke:#263238;stroke-miterlimit:10;" d="M292.124,442.776c0,0,11.431-8.449,17.395-9.94
					c5.964-1.491,11.928-1.491,11.928-1.491s-4.473,7.455-12.922,9.94C300.076,443.77,292.124,442.776,292.124,442.776z"/>
				<path style="fill:#92E3A9;stroke:#263238;stroke-miterlimit:10;" d="M283.177,427.369c0,0,3.479-4.97,7.952-5.964
					c4.473-0.994,9.94-1.491,9.94-1.491s-2.982,2.982-6.958,4.97C290.135,426.872,283.177,427.369,283.177,427.369z"/>
				<path style="fill:#92E3A9;stroke:#263238;stroke-miterlimit:10;" d="M314.986,426.375c0,0-9.443-2.485-13.916-0.497
					c-4.473,1.988-10.437,5.467-10.437,5.467S310.016,430.848,314.986,426.375z"/>
				<path style="fill:#92E3A9;stroke:#263238;stroke-miterlimit:10;" d="M286.656,441.285c0,0-4.473-2.485-8.946-2.982
					c-4.473-0.497-9.443,0.497-9.443,0.497s4.473,1.491,8.449,3.976C280.692,445.261,286.656,441.285,286.656,441.285z"/>
				<path style="fill:#92E3A9;stroke:#263238;stroke-miterlimit:10;" d="M299.209,422.182c0,0,2.357-2.269,6.83-5.251
					c4.473-2.982,12.425-3.479,12.425-3.479s-2.485,6.461-4.473,8.946c-1.988,2.485-8.449,3.976-11.431,4.473
					c-2.982,0.497-0.994,0.994,2.982,3.479c3.976,2.485,10.437,9.443,10.437,9.443s-6.958,0.497-11.431-0.994
					c-4.473-1.491-7.952-1.988-8.946-5.964c-0.994-3.976-1.491-5.467-1.491-6.958C294.112,424.387,299.209,422.182,299.209,422.182z
					"/>
				<path style="fill:#92E3A9;stroke:#263238;stroke-miterlimit:10;" d="M295.603,432.836c0,0-8.449,0-9.94,2.982
					c-1.491,2.982-2.982,9.94-2.982,9.94s4.97-2.485,8.449-4.97C294.609,438.303,295.603,432.836,295.603,432.836z"/>
				<path style="fill:#92E3A9;stroke:#263238;stroke-miterlimit:10;" d="M299.082,435.818c0,0-2.485,7.952,0,12.425
					c2.485,4.473,5.964,7.952,5.964,7.952l4.97-0.497c0,0-3.479-9.94-4.473-13.419C304.549,438.8,299.082,435.818,299.082,435.818z"
					/>
				<path style="fill:#92E3A9;stroke:#263238;stroke-miterlimit:10;" d="M301.07,454.704c0,0-5.964-4.97-9.94-5.467
					c-3.976-0.497-10.437-0.497-12.922-1.491c-2.485-0.994-4.97-1.491-4.97-1.491s5.467,6.461,8.449,7.455
					C284.668,454.704,301.07,454.704,301.07,454.704z"/>
				<path style="fill:#92E3A9;stroke:#263238;stroke-miterlimit:10;" d="M303.555,409.476c0,0-8.449,4.473-8.946,10.437
					c-0.497,5.964-4.473,9.94-3.479,11.431c0.994,1.491,14.413-10.437,14.91-14.413c0.497-3.976,5.964-10.934,5.964-10.934
					L303.555,409.476z"/>
				<path style="fill:#92E3A9;stroke:#263238;stroke-miterlimit:10;" d="M334.792,448.426c0,0-6.958,3.479-10.437-0.994
					c-3.479-4.473-6.461-4.97-6.461-4.97s11.906-3.089,13.905-0.799c1.999,2.29,8.46,5.272,8.46,5.272L334.792,448.426z"/>
				<path style="fill:#92E3A9;stroke:#263238;stroke-miterlimit:10;" d="M289.564,457.372c0,0-4.473-2.485-8.946-2.982
					c-4.473-0.497-9.443,0.497-9.443,0.497s4.473,1.491,8.449,3.976C283.6,461.348,289.564,457.372,289.564,457.372z"/>
			</g>
			<g>
				<path style="fill:#92E3A9;stroke:#263238;stroke-miterlimit:10;" d="M299.365,451.486c0,0-1.808,2.727-5.525,6.61
					c-3.718,3.883-11.371,6.097-11.371,6.097s1.021-6.847,2.421-9.705c1.4-2.858,7.383-5.718,10.185-6.851
					c2.803-1.133,0.754-1.186-3.667-2.747c-4.421-1.561-12.241-6.948-12.241-6.948s6.684-1.998,11.374-1.515
					c4.69,0.483,8.194,0.212,10.029,3.876c1.835,3.665,2.644,5.012,2.968,6.467C303.861,448.226,299.365,451.486,299.365,451.486z"
					/>
				<path style="fill:#92E3A9;stroke:#263238;stroke-miterlimit:10;" d="M300.569,440.303c0,0,8.247-1.837,9.054-5.072
					c0.807-3.235,0.75-10.351,0.75-10.351s-4.311,3.506-7.167,6.688C300.351,434.751,300.569,440.303,300.569,440.303z"/>
				<path style="fill:#92E3A9;stroke:#263238;stroke-miterlimit:10;" d="M296.525,438.149c0,0,0.697-8.302-2.701-12.128
					c-3.398-3.826-7.55-6.465-7.55-6.465l-4.743,1.566c0,0,5.557,8.946,7.284,12.126
					C290.54,436.427,296.525,438.149,296.525,438.149z"/>
				<path style="fill:#92E3A9;stroke:#263238;stroke-miterlimit:10;" d="M290.54,436.427c0,0-8.576-8.783-14.99-7.863
					c-6.415,0.92-6.146-0.159-9.81,1.676s-6.09,2.375-8.569,4.964c-2.478,2.589-2.478,2.589-2.478,2.589s8.84-1.46,16.657-0.655
					C279.167,437.942,290.54,436.427,290.54,436.427z"/>
				<path style="fill:#92E3A9;stroke:#263238;stroke-miterlimit:10;" d="M256.035,427.819c0,0-9.321,10.732-14.818,13.484
					c-5.497,2.752-11.319,4.049-11.319,4.049s2.745-8.249,10.452-12.512C248.057,428.578,256.035,427.819,256.035,427.819z"/>
				<path style="fill:#92E3A9;stroke:#263238;stroke-miterlimit:10;" d="M268.117,440.913c0,0,1.51,2.209,5.663,4.849
					c4.152,2.639,11.109,8.728,11.109,8.728s-0.005-9.164-3.564-11.427C277.766,440.8,268.117,440.913,268.117,440.913z"/>
				<path style="fill:#92E3A9;stroke:#263238;stroke-miterlimit:10;" d="M268.117,440.913c0,0-2.315,5.608-6.465,7.55
					c-4.15,1.943-9.378,3.617-9.378,3.617s2.262-3.559,5.711-6.364C261.433,442.91,268.117,440.913,268.117,440.913z"/>
				<path style="fill:#92E3A9;stroke:#263238;stroke-miterlimit:10;" d="M266.652,422.908c0,0,5.821-1.297,8.624-2.43
					c2.803-1.133,12.935-5.936,12.935-5.936s-8.033-1.775-14.124,0.6C267.997,417.517,266.652,422.908,266.652,422.908z"/>
				<path style="fill:#92E3A9;stroke:#263238;stroke-miterlimit:10;" d="M290.478,420.147c0,0,6.902,3.555,10.891,3.175
					c3.989-0.379,10.296-1.784,12.937-1.354c2.642,0.43,5.175,0.375,5.175,0.375s-6.741-5.118-9.868-5.44
					S290.478,420.147,290.478,420.147z"/>
				<path style="fill:#92E3A9;stroke:#263238;stroke-miterlimit:10;" d="M237.285,448.798c0,0,9.757,0.372,13.691-2.54
					c3.934-2.913,8.999-7.605,8.999-7.605S241.164,443.352,237.285,448.798z"/>
				<path style="fill:#92E3A9;stroke:#263238;stroke-miterlimit:10;" d="M297.886,464.833c0,0,7.275-6.203,6.463-12.132
					c-0.812-5.93,2.205-10.675,0.91-11.914c-1.294-1.239-11.799,13.321-11.42,17.31c0.379,3.989-3.444,11.969-3.444,11.969
					L297.886,464.833z"/>
				<path style="fill:#92E3A9;stroke:#263238;stroke-miterlimit:10;" d="M219.495,446.651c0,0,6.035-4.909,10.404-1.299
					c4.368,3.61,7.387,3.447,7.387,3.447s-10.95,5.603-13.399,3.803c-2.449-1.8-9.404-3.306-9.404-3.306L219.495,446.651z"/>
				<path style="fill:#92E3A9;stroke:#263238;stroke-miterlimit:10;" d="M261.695,428.086c0,0,4.906,1.453,9.38,0.966
					s9.109-2.538,9.109-2.538s-4.69-0.483-9.111-2.044C266.652,422.908,261.695,428.086,261.695,428.086z"/>
			</g>
			<g>
				<path style="fill:#92E3A9;stroke:#263238;stroke-miterlimit:10;" d="M202.028,437.641c0,0,6.461,10.437,12.922,10.934
					c6.461,0.497,5.964,1.491,9.94,0.497c3.976-0.994,6.461-0.994,9.443-2.982c2.982-1.988,2.982-1.988,2.982-1.988
					s-8.946-0.497-16.401-2.982C213.459,438.635,202.028,437.641,202.028,437.641z"/>
				<path style="fill:#92E3A9;stroke:#263238;stroke-miterlimit:10;" d="M233.836,453.545c0,0,11.431-8.449,17.395-9.94
					c5.964-1.491,11.928-1.491,11.928-1.491s-4.473,7.455-12.922,9.94C241.789,454.539,233.836,453.545,233.836,453.545z"/>
				<path style="fill:#92E3A9;stroke:#263238;stroke-miterlimit:10;" d="M224.89,438.138c0,0-0.994-2.485-4.473-5.964
					c-3.479-3.479-8.946-10.934-8.946-10.934s-1.988,8.946,0.994,11.928C215.447,436.15,224.89,438.138,224.89,438.138z"/>
				<path style="fill:#92E3A9;stroke:#263238;stroke-miterlimit:10;" d="M224.89,438.138c0,0,3.479-4.97,7.952-5.964
					c4.473-0.994,9.94-1.491,9.94-1.491s-2.982,2.982-6.958,4.97C231.848,437.641,224.89,438.138,224.89,438.138z"/>
				<path style="fill:#92E3A9;stroke:#263238;stroke-miterlimit:10;" d="M222.405,456.03c0,0-5.964,0-8.946,0.497
					c-2.982,0.497-13.916,2.982-13.916,2.982s7.455,3.479,13.916,2.485C219.92,461,222.405,456.03,222.405,456.03z"/>
				<path style="fill:#92E3A9;stroke:#263238;stroke-miterlimit:10;" d="M256.699,437.144c0,0-9.443-2.485-13.916-0.497
					c-4.473,1.988-10.437,5.467-10.437,5.467S251.729,441.617,256.699,437.144z"/>
				<path style="fill:#92E3A9;stroke:#263238;stroke-miterlimit:10;" d="M228.369,452.054c0,0-4.473-2.485-8.946-2.982
					c-4.473-0.497-9.443,0.497-9.443,0.497s4.473,1.491,8.449,3.976C222.405,456.03,228.369,452.054,228.369,452.054z"/>
				<path style="fill:#92E3A9;stroke:#263238;stroke-miterlimit:10;" d="M240.922,432.952c0,0,2.357-2.269,6.83-5.251
					c4.473-2.982,12.425-3.479,12.425-3.479s-2.485,6.461-4.473,8.946c-1.988,2.485-8.449,3.976-11.431,4.473
					c-2.982,0.497-0.994,0.994,2.982,3.479c3.976,2.485,10.437,9.443,10.437,9.443s-6.958,0.497-11.431-0.994
					c-4.473-1.491-7.952-1.988-8.946-5.964c-0.994-3.976-1.491-5.467-1.491-6.958S240.922,432.952,240.922,432.952z"/>
				<path style="fill:#92E3A9;stroke:#263238;stroke-miterlimit:10;" d="M237.315,443.605c0,0-8.449,0-9.94,2.982
					c-1.491,2.982-2.982,9.94-2.982,9.94s4.97-2.485,8.449-4.97C236.321,449.072,237.315,443.605,237.315,443.605z"/>
				<path style="fill:#92E3A9;stroke:#263238;stroke-miterlimit:10;" d="M240.795,446.587c0,0-2.485,7.952,0,12.425
					c2.485,4.473,5.964,7.952,5.964,7.952l4.97-0.497c0,0-3.479-9.94-4.473-13.419C246.262,449.569,240.795,446.587,240.795,446.587
					z"/>
				<path style="fill:#92E3A9;stroke:#263238;stroke-miterlimit:10;" d="M246.262,449.569c0,0,6.461,10.437,12.922,10.934
					c6.461,0.497,5.964,1.491,9.94,0.497c3.976-0.994,6.461-0.994,9.443-2.982c2.982-1.988,2.982-1.988,2.982-1.988
					s-8.946-0.497-16.401-2.982C257.693,450.563,246.262,449.569,246.262,449.569z"/>
				<path style="fill:#92E3A9;stroke:#263238;stroke-miterlimit:10;" d="M278.07,465.474c0,0,11.431-8.449,17.395-9.94
					c5.964-1.491,11.928-1.491,11.928-1.491s-4.473,7.455-12.922,9.94C286.022,466.467,278.07,465.474,278.07,465.474z"/>
				<path style="fill:#92E3A9;stroke:#263238;stroke-miterlimit:10;" d="M269.124,450.066c0,0-0.994-2.485-4.473-5.964
					c-3.479-3.479-8.946-10.934-8.946-10.934s-1.988,8.946,0.994,11.928C259.681,448.078,269.124,450.066,269.124,450.066z"/>
				<path style="fill:#92E3A9;stroke:#263238;stroke-miterlimit:10;" d="M269.124,450.066c0,0,3.479-4.97,7.952-5.964
					c4.473-0.994,9.94-1.491,9.94-1.491s-2.982,2.982-6.958,4.97C276.082,449.569,269.124,450.066,269.124,450.066z"/>
				<path style="fill:#92E3A9;stroke:#263238;stroke-miterlimit:10;" d="M266.639,467.959c0,0-5.964,0-8.946,0.497
					c-2.982,0.497-13.916,2.982-13.916,2.982s7.455,3.479,13.916,2.485C264.154,472.929,266.639,467.959,266.639,467.959z"/>
				<path style="fill:#92E3A9;stroke:#263238;stroke-miterlimit:10;" d="M242.783,465.474c0,0-5.964-4.97-9.94-5.467
					c-3.976-0.497-10.437-0.497-12.922-1.491c-2.485-0.994-4.97-1.491-4.97-1.491s5.467,6.461,8.449,7.455
					C226.381,465.474,242.783,465.474,242.783,465.474z"/>
				<path style="fill:#92E3A9;stroke:#263238;stroke-miterlimit:10;" d="M300.932,449.072c0,0-9.443-2.485-13.916-0.497
					c-4.473,1.988-10.437,5.467-10.437,5.467S295.962,453.545,300.932,449.072z"/>
				<path style="fill:#92E3A9;stroke:#263238;stroke-miterlimit:10;" d="M245.268,420.246c0,0-8.449,4.473-8.946,10.437
					c-0.497,5.964-4.473,9.94-3.479,11.431c0.994,1.491,14.413-10.437,14.91-14.413c0.497-3.976,5.964-10.934,5.964-10.934
					L245.268,420.246z"/>
				<path style="fill:#92E3A9;stroke:#263238;stroke-miterlimit:10;" d="M243.354,433.482c0,0,6.461,10.437,12.922,10.934
					c6.461,0.497,5.964,1.491,9.94,0.497c3.976-0.994,6.461-0.994,9.443-2.982c2.982-1.988,2.982-1.988,2.982-1.988
					s-8.946-0.497-16.401-2.982C254.785,434.476,243.354,433.482,243.354,433.482z"/>
				<path style="fill:#92E3A9;stroke:#263238;stroke-miterlimit:10;" d="M275.163,449.386c0,0,11.431-8.449,17.395-9.94
					c5.964-1.491,11.928-1.491,11.928-1.491s-4.473,7.455-12.922,9.94C283.115,450.38,275.163,449.386,275.163,449.386z"/>
				<path style="fill:#92E3A9;stroke:#263238;stroke-miterlimit:10;" d="M266.217,433.979c0,0,3.479-4.97,7.952-5.964
					c4.473-0.994,9.94-1.491,9.94-1.491s-2.982,2.982-6.958,4.97C273.175,433.482,266.217,433.979,266.217,433.979z"/>
				<path style="fill:#92E3A9;stroke:#263238;stroke-miterlimit:10;" d="M298.025,432.985c0,0-9.443-2.485-13.916-0.497
					c-4.473,1.988-10.437,5.467-10.437,5.467S293.055,437.458,298.025,432.985z"/>
				<path style="fill:#92E3A9;stroke:#263238;stroke-miterlimit:10;" d="M269.696,447.895c0,0-4.473-2.485-8.946-2.982
					c-4.473-0.497-9.443,0.497-9.443,0.497s4.473,1.491,8.449,3.976C263.732,451.871,269.696,447.895,269.696,447.895z"/>
				<path style="fill:#92E3A9;stroke:#263238;stroke-miterlimit:10;" d="M282.249,428.792c0,0,2.357-2.269,6.83-5.251
					c4.473-2.982,12.425-3.479,12.425-3.479s-2.485,6.461-4.473,8.946c-1.988,2.485-8.449,3.976-11.431,4.473
					c-2.982,0.497-0.994,0.994,2.982,3.479c3.976,2.485,10.437,9.443,10.437,9.443s-6.958,0.497-11.431-0.994
					c-4.473-1.491-7.952-1.988-8.946-5.964c-0.994-3.976-1.491-5.467-1.491-6.958C277.151,430.997,282.249,428.792,282.249,428.792z
					"/>
				<path style="fill:#92E3A9;stroke:#263238;stroke-miterlimit:10;" d="M278.642,439.446c0,0-8.449,0-9.94,2.982
					c-1.491,2.982-2.982,9.94-2.982,9.94s4.97-2.485,8.449-4.97C277.648,444.913,278.642,439.446,278.642,439.446z"/>
				<path style="fill:#92E3A9;stroke:#263238;stroke-miterlimit:10;" d="M282.121,442.428c0,0-2.485,7.952,0,12.425
					c2.485,4.473,5.964,7.952,5.964,7.952l4.97-0.497c0,0-3.479-9.94-4.473-13.419C287.588,445.41,282.121,442.428,282.121,442.428z
					"/>
				<path style="fill:#92E3A9;stroke:#263238;stroke-miterlimit:10;" d="M284.109,461.314c0,0-5.964-4.97-9.94-5.467
					c-3.976-0.497-10.437-0.497-12.922-1.491c-2.485-0.994-4.97-1.491-4.97-1.491s5.467,6.461,8.449,7.455
					C267.708,461.314,284.109,461.314,284.109,461.314z"/>
				<path style="fill:#92E3A9;stroke:#263238;stroke-miterlimit:10;" d="M286.594,416.087c0,0-8.449,4.473-8.946,10.437
					c-0.497,5.964-4.473,9.94-3.479,11.431c0.994,1.491,14.413-10.437,14.91-14.413c0.497-3.976,5.964-10.934,5.964-10.934
					L286.594,416.087z"/>
				<path style="fill:#92E3A9;stroke:#263238;stroke-miterlimit:10;" d="M317.831,455.036c0,0-6.958,3.479-10.437-0.994
					c-3.479-4.473-6.461-4.97-6.461-4.97s11.906-3.089,13.905-0.799c1.999,2.29,8.46,5.272,8.46,5.272L317.831,455.036z"/>
				<path style="fill:#92E3A9;stroke:#263238;stroke-miterlimit:10;" d="M272.603,463.983c0,0-4.473-2.485-8.946-2.982
					c-4.473-0.497-9.443,0.497-9.443,0.497s4.473,1.491,8.449,3.976C266.639,467.959,272.603,463.983,272.603,463.983z"/>
			</g>
		</g>
		<g>
			<circle style="fill:#C9C9C9;stroke:#263238;stroke-miterlimit:10;" cx="163.288" cy="418.828" r="4.921"/>
			<circle style="fill:#C9C9C9;stroke:#263238;stroke-miterlimit:10;" cx="167.916" cy="425.771" r="4.921"/>
			<circle style="fill:#C9C9C9;stroke:#263238;stroke-miterlimit:10;" cx="165.602" cy="434.16" r="4.921"/>
			<path style="fill:#C9C9C9;stroke:#263238;stroke-miterlimit:10;" d="M175.158,411.386c0,2.718-2.203,4.921-4.921,4.921
				c-2.718,0-4.922-2.203-4.922-4.921c0-2.718,2.203-4.921,4.922-4.921C172.955,406.465,175.158,408.668,175.158,411.386z"/>
			<circle style="fill:#C9C9C9;stroke:#263238;stroke-miterlimit:10;" cx="145.358" cy="428.165" r="4.921"/>
			<circle style="fill:#C9C9C9;stroke:#263238;stroke-miterlimit:10;" cx="172.551" cy="420.354" r="4.921"/>
			<circle style="fill:#C9C9C9;stroke:#263238;stroke-miterlimit:10;" cx="160.401" cy="412.832" r="4.921"/>
			<circle style="fill:#C9C9C9;stroke:#263238;stroke-miterlimit:10;" cx="198.587" cy="444.075" r="4.921"/>
			<circle style="fill:#C9C9C9;stroke:#263238;stroke-miterlimit:10;" cx="185.569" cy="448.704" r="4.921"/>
			<circle style="fill:#C9C9C9;stroke:#263238;stroke-miterlimit:10;" cx="174.865" cy="447.258" r="4.921"/>
			<circle style="fill:#C9C9C9;stroke:#263238;stroke-miterlimit:10;" cx="175.733" cy="430.19" r="4.921"/>
			<circle style="fill:#C9C9C9;stroke:#263238;stroke-miterlimit:10;" cx="179.494" cy="442.918" r="4.921"/>
			<circle style="fill:#C9C9C9;stroke:#263238;stroke-miterlimit:10;" cx="184.701" cy="436.265" r="4.921"/>
			<circle style="fill:#C9C9C9;stroke:#263238;stroke-miterlimit:10;" cx="189.908" cy="442.629" r="4.921"/>
			<circle style="fill:#C9C9C9;stroke:#263238;stroke-miterlimit:10;" cx="151.722" cy="435.108" r="4.921"/>
			<circle style="fill:#C9C9C9;stroke:#263238;stroke-miterlimit:10;" cx="160.112" cy="440.025" r="4.921"/>
			<circle style="fill:#C9C9C9;stroke:#263238;stroke-miterlimit:10;" cx="173.997" cy="438.579" r="4.921"/>
			<circle style="fill:#C9C9C9;stroke:#263238;stroke-miterlimit:10;" cx="167.923" cy="443.497" r="4.921"/>
			<circle style="fill:#C9C9C9;stroke:#263238;stroke-miterlimit:10;" cx="160.401" cy="426.429" r="4.921"/>
			<circle style="fill:#C9C9C9;stroke:#263238;stroke-miterlimit:10;" cx="155.483" cy="431.058" r="4.921"/>
			<path style="fill:#C9C9C9;stroke:#263238;stroke-miterlimit:10;" d="M160.115,441.761c0,2.718-2.203,4.921-4.921,4.921
				s-4.921-2.203-4.921-4.921c0-2.718,2.203-4.922,4.921-4.922S160.115,439.043,160.115,441.761z"/>
			<circle style="fill:#C9C9C9;stroke:#263238;stroke-miterlimit:10;" cx="196.851" cy="451.886" r="4.921"/>
			<path style="fill:#C9C9C9;stroke:#263238;stroke-miterlimit:10;" d="M185.283,452.176c0,2.718-2.203,4.921-4.921,4.921
				c-2.718,0-4.921-2.203-4.921-4.921c0-2.718,2.203-4.922,4.921-4.922C183.08,447.254,185.283,449.457,185.283,452.176z"/>
			<circle style="fill:#C9C9C9;stroke:#263238;stroke-miterlimit:10;" cx="206.687" cy="451.308" r="4.921"/>
			<circle style="fill:#C9C9C9;stroke:#263238;stroke-miterlimit:10;" cx="190.772" cy="453.911" r="4.921"/>
			<path style="fill:#C9C9C9;stroke:#263238;stroke-miterlimit:10;" d="M158.669,420.932c0,2.718-2.203,4.922-4.921,4.922
				c-2.718,0-4.921-2.203-4.921-4.922c0-2.718,2.203-4.921,4.921-4.921C156.465,416.011,158.669,418.215,158.669,420.932z"/>
		</g>
	</g>
</g>
</svg>
